<?xml version="1.0" encoding="UTF-8"?>
<svg version="1.1" xmlns="http://www.w3.org/2000/svg" width="1024" height="1024">
<path d="M0 0 C2.65679957 2.54653079 4.87590457 5.06596034 6.91796875 8.125 C7.44551758 8.90794434 7.97306641 9.69088867 8.51660156 10.49755859 C9.06799805 11.32336426 9.61939453 12.14916992 10.1875 13 C14.58918658 19.51878206 19.08742969 25.89052721 23.86328125 32.140625 C27.09371382 36.46361704 30.11856167 40.92042404 33.15234375 45.3828125 C34.89431746 48.00755024 34.89431746 48.00755024 37 50 C37.98580641 51.46100052 38.9385852 52.94436098 39.875 54.4375 C40.80892578 55.92443359 40.80892578 55.92443359 41.76171875 57.44140625 C42.11411621 58.00359863 42.46651367 58.56579102 42.82958984 59.14501953 C44.11082747 61.17565021 45.4080751 63.19550383 46.70703125 65.21484375 C56.04044535 79.77360039 64.90599404 94.60906146 72.6875 110.0625 C73.01459961 110.71114014 73.34169922 111.35978027 73.67871094 112.02807617 C74.87250499 114.45374332 75.93592914 116.73898648 76.58203125 119.37109375 C76.78892578 120.17740234 76.78892578 120.17740234 77 121 C77.66 121.33 78.32 121.66 79 122 C79.89620371 123.92611071 80.70018751 125.89538841 81.4609375 127.87890625 C81.93088135 129.10383789 82.4008252 130.32876953 82.88500977 131.59082031 C83.38231334 132.91447321 83.87896593 134.23837084 84.375 135.5625 C84.62466522 136.22117065 84.87433044 136.87984131 85.13156128 137.55847168 C88.4736945 146.3917445 91.41379252 155.1552589 93.31640625 164.421875 C93.54199219 165.27265625 93.76757812 166.1234375 94 167 C94.66 167.33 95.32 167.66 96 168 C96 169.32 96 170.64 96 172 C96.3893381 174.38773897 96.82085453 176.76871578 97.27734375 179.14453125 C97.47355064 180.17654915 97.47355064 180.17654915 97.67372131 181.22941589 C98.09153842 183.42445142 98.51421724 185.61851247 98.9375 187.8125 C99.35650262 189.99590213 99.7744231 192.17950027 100.19056702 194.3634491 C100.5700342 196.35316115 100.95277387 198.34224828 101.33569336 200.33129883 C101.79126114 202.84721838 102.1848843 205.37491062 102.52563477 207.90893555 C102.66720299 210.86442471 102.66720299 210.86442471 104 212 C107.00550115 194.33626404 109.77748228 176.96324905 110 159 C110.66 158.67 111.32 158.34 112 158 C117.80678558 167.64539863 123.60693564 177.29427811 129.3125 187 C129.71839355 187.68956787 130.12428711 188.37913574 130.54248047 189.08959961 C132.415859 192.27832089 134.27553933 195.47362681 136.10546875 198.6875 C136.73066406 199.780625 137.35585938 200.87375 138 202 C138.53625 202.94875 139.0725 203.8975 139.625 204.875 C140.82515008 207.12423547 140.82515008 207.12423547 143 208 C143.34861816 209.66353667 143.67904298 211.33090579 144 213 C144.78402619 214.79367635 145.63000413 216.56092335 146.51953125 218.3046875 C147.04144043 219.3472168 147.56334961 220.38974609 148.10107422 221.46386719 C148.66584473 222.58954102 149.23061523 223.71521484 149.8125 224.875 C172.35058366 270.80236959 193.05256046 327.11090683 176.75 378.03125 C172.30813618 390.76675443 164.21759486 401.64303252 155.69140625 411.94921875 C153.96070689 413.99457764 153.96070689 413.99457764 152.40234375 416.26953125 C151.93957031 416.84058594 151.47679687 417.41164063 151 418 C150.34 418 149.68 418 149 418 C148.7421875 418.58265625 148.484375 419.1653125 148.21875 419.765625 C146.90165983 422.1802903 145.44911616 423.81740177 143.5 425.75 C142.8915625 426.36359375 142.283125 426.9771875 141.65625 427.609375 C140 429 140 429 138 429 C138 429.66 138 430.32 138 431 C136.5390625 432.5078125 136.5390625 432.5078125 134.625 434.125 C133.99851562 434.66382813 133.37203125 435.20265625 132.7265625 435.7578125 C131 437 131 437 129 437 C129 437.66 129 438.32 129 439 C127.26787969 440.50871963 125.45883593 441.92919907 123.625 443.3125 C123.04991699 443.74691406 122.47483398 444.18132812 121.88232422 444.62890625 C119.92904876 446.09631024 117.96622763 447.55000022 116 449 C115.29359375 449.52126465 114.5871875 450.0425293 113.859375 450.57958984 C99.98287448 460.78090904 85.76749966 470.30753903 71.18774414 479.46899414 C65.23673033 483.20893098 59.32853391 487.01000344 53.43652344 490.84204102 C47.16730066 494.91116301 40.84641549 498.89654862 34.50585938 502.85351562 C26.31831842 507.86151089 26.31831842 507.86151089 19 514 C17.80370736 514.6477487 16.59271969 515.26849097 15.375 515.875 C6.32679345 520.80641804 -1.66452377 527.6298599 -9.78125 533.93359375 C-10.3680957 534.38839111 -10.95494141 534.84318848 -11.55957031 535.31176758 C-13.15277449 536.54946909 -14.74062969 537.79404715 -16.328125 539.0390625 C-18.52034908 540.6479755 -20.5250073 541.9039318 -23 543 C-24.39763512 541.77288246 -25.79301472 540.54319582 -27.1875 539.3125 C-27.96480469 538.62800781 -28.74210938 537.94351563 -29.54296875 537.23828125 C-32.11156389 534.89836866 -34.56018962 532.47369664 -37 530 C-45.44977332 521.4302072 -45.44977332 521.4302072 -54.44140625 513.4375 C-56 512 -56 512 -58 509 C-51.07349672 500.02826937 -43.94611934 491.28544476 -36.49462891 482.74414062 C-34.82177769 480.84302998 -34.82177769 480.84302998 -32.84545898 477.99291992 C-29.74931317 474.2917875 -26.27978863 473.25967389 -21.74609375 471.95703125 C-20.94134109 471.70709412 -20.13658844 471.45715698 -19.30744934 471.199646 C-17.58391285 470.66550779 -15.85774224 470.13980829 -14.12927246 469.62185669 C-9.56449746 468.24932939 -5.02366139 466.80143408 -0.48046875 465.359375 C0.42492645 465.07336929 1.33032166 464.78736359 2.26315308 464.49269104 C35.90256728 453.8069448 70.57323027 439.10491188 96 414 C96.6496875 413.4225 97.299375 412.845 97.96875 412.25 C116.70455728 395.21744793 124.4555833 367.78613349 126.18359375 343.41015625 C127.06986856 312.91187619 115.13133947 282.72682456 94.45654297 260.53076172 C63.5308095 228.0291947 18.41922046 221.04633396 -23.75457764 214.02105713 C-26.45952255 213.56889538 -29.16343182 213.11069975 -31.86735153 212.65245342 C-35.11421778 212.10271447 -38.36179776 211.55723945 -41.609375 211.01171875 C-42.81229187 210.80866623 -44.01520874 210.60561371 -45.25457764 210.39640808 C-46.91471893 210.12030449 -46.91471893 210.12030449 -48.60839844 209.83862305 C-49.58049255 209.67605515 -50.55258667 209.51348724 -51.55413818 209.34599304 C-54.08336895 208.92996696 -54.08336895 208.92996696 -57 209 C-57.10000809 209.62080948 -57.20001617 210.24161896 -57.30305481 210.88124084 C-58.69154283 219.02363514 -60.70946585 226.9544804 -62.82421875 234.93359375 C-63.20640244 236.38881597 -63.58813499 237.84415674 -63.9694519 239.29960632 C-64.7816165 242.39746739 -65.5959013 245.49475933 -66.41189575 248.59161377 C-68.59146462 256.86648009 -70.75342726 265.14595441 -72.9140625 273.42578125 C-73.13236032 274.26201271 -73.35065815 275.09824417 -73.57557106 275.95981598 C-77.6712404 291.65704589 -81.65207762 307.38050377 -85.5625 323.125 C-86.0034198 324.89997864 -86.0034198 324.89997864 -86.45324707 326.71081543 C-86.74872437 327.90033813 -87.04420166 329.08986084 -87.34863281 330.31542969 C-87.95368855 332.75067278 -88.55883255 335.18589395 -89.1640625 337.62109375 C-89.61736938 339.44533371 -89.61736938 339.44533371 -90.07983398 341.306427 C-92.57422064 351.32744824 -95.10576628 361.33879492 -97.6484375 371.34765625 C-97.84739309 372.13101601 -98.04634869 372.91437576 -98.25133324 373.72147369 C-100.01958828 380.68302674 -101.78888685 387.64431338 -103.56326294 394.60430908 C-107.61159225 410.48435187 -111.60994367 426.3744287 -115.47265625 442.30078125 C-115.64541014 443.0121694 -115.81816402 443.72355755 -115.99615288 444.45650291 C-116.48325326 446.46457221 -116.96870243 448.47303153 -117.45336914 450.48168945 C-117.72879044 451.62281693 -118.00421173 452.7639444 -118.28797913 453.93965149 C-118.91134542 456.61895232 -119.47942156 459.29910917 -120 462 C-122 462 -122 462 -123.3046875 460.70703125 C-124.08199219 459.76923828 -124.08199219 459.76923828 -124.875 458.8125 C-127.59241895 455.60357284 -130.3862373 452.50390563 -133.27246094 449.44848633 C-151.02317834 430.59186659 -163.90897831 409.52838433 -173.87109375 385.6953125 C-174.53497802 384.11026009 -175.23147759 382.53704482 -176 381 C-176.34552374 378.66844067 -176.6765846 376.33472869 -177 374 C-177.24878906 372.77667969 -177.49757813 371.55335938 -177.75390625 370.29296875 C-187.55811103 321.84375754 -169.47002525 273.6277841 -143.1027832 233.49267578 C-127.26549296 209.82340296 -109.38639461 186.8737106 -90 166 C-89.34 166.33 -88.68 166.66 -88 167 C-88.33 167.66 -88.66 168.32 -89 169 C-91.22137663 173.84583041 -92.23080265 178.93602817 -93.3828125 184.11328125 C-93.60194305 185.08283249 -93.82107361 186.05238373 -94.04684448 187.05131531 C-94.74343393 190.1375197 -95.43429034 193.22497494 -96.125 196.3125 C-96.59727828 198.40959037 -97.06993027 200.50659661 -97.54296875 202.60351562 C-98.6996451 207.73471008 -99.85162152 212.86694246 -101 218 C-98.9611821 215.98703016 -97.1272003 213.97187178 -95.390625 211.69140625 C-94.89111328 211.0372876 -94.39160156 210.38316895 -93.87695312 209.70922852 C-93.34005859 209.00080811 -92.80316406 208.2923877 -92.25 207.5625 C-91.68216797 206.81605225 -91.11433594 206.06960449 -90.52929688 205.30053711 C-88.6827896 202.86958718 -86.84079485 200.43527792 -85 198 C-84.38447266 197.18660156 -83.76894531 196.37320313 -83.13476562 195.53515625 C-70.64472947 179.0122871 -58.18826117 162.44311583 -47 145 C-46.57009766 144.33097656 -46.14019531 143.66195312 -45.69726562 142.97265625 C-17.23248347 98.34320218 -3.77027748 52.39417986 0 0 Z " fill="#F3474A" transform="translate(512,205)"/>
<path d="M0 0 C3.96828056 0.64367744 7.32001207 1.8698046 10.99609375 3.484375 C12.17913086 4.00080566 13.36216797 4.51723633 14.58105469 5.04931641 C15.86654486 5.6161919 17.15202639 6.18308696 18.4375 6.75 C19.77873739 7.33696069 21.12021301 7.92337728 22.46191406 8.50927734 C25.25210103 9.72828625 28.04124613 10.94963247 30.82958984 12.17285156 C36.67410639 14.73541206 42.52762183 17.27715822 48.3828125 19.81521606 C50.25306283 20.62632832 52.12264313 21.43897108 53.9921875 22.25170898 C61.16537349 25.36584202 68.36417644 28.41167027 75.5847168 31.41430664 C112.75719973 46.91614963 112.75719973 46.91614963 123 61 C123.99 62.299375 123.99 62.299375 125 63.625 C126 66 126 66 125.29833984 68.39648438 C123.90749491 71.18549722 122.45986212 72.87085055 120.2265625 75.03125 C119.1128125 76.12373047 119.1128125 76.12373047 117.9765625 77.23828125 C117.20054687 77.98464844 116.42453125 78.73101563 115.625 79.5 C114.09408343 80.98724949 112.56537022 82.476771 111.0390625 83.96875 C110.32782227 84.66355469 109.61658203 85.35835937 108.88378906 86.07421875 C106.82808793 88.11046816 106.82808793 88.11046816 104.5859375 91.03125 C104.06257812 91.6809375 103.53921875 92.330625 103 93 C102.34 93 101.68 93 101 93 C100.75467529 93.57202148 100.50935059 94.14404297 100.2565918 94.73339844 C98.78524527 97.38736797 97.06447599 99.14499183 94.89453125 101.265625 C93.66573242 102.47798828 93.66573242 102.47798828 92.41210938 103.71484375 C91.55423828 104.55144531 90.69636719 105.38804687 89.8125 106.25 C84.4984826 111.45373417 79.30529956 116.66231208 74.46362305 122.31152344 C72.73311439 124.30788672 70.90022253 126.16530238 69 128 C65.72797872 131.2215855 62.70683945 134.58592145 59.71484375 138.06640625 C58.03995701 139.95494597 56.30052413 141.73155648 54.5 143.5 C51.46405075 146.48872337 48.65491341 149.61706479 45.875 152.84375 C43.82640906 155.19962958 41.72796998 157.5050746 39.625 159.8125 C36.53363199 163.23229328 33.57540968 166.71958524 30.6875 170.3125 C26.79744069 175.12585437 22.67128166 179.6476145 18.44433594 184.16113281 C14.52121407 188.37393141 10.88103586 192.76395352 7.27734375 197.25390625 C4.78173138 200.26319526 2.16226541 203.13930487 -0.5 206 C-4.85870043 210.68628543 -8.96709561 215.52233988 -12.984375 220.5078125 C-15.59099903 223.73073136 -18.28543427 226.86780877 -21 230 C-21.66 229.34 -22.32 228.68 -23 228 C-22.73672439 225.13035318 -22.35275675 222.41737652 -21.83984375 219.58984375 C-21.69349991 218.74837296 -21.54715607 217.90690216 -21.39637756 217.03993225 C-21.08167907 215.25255596 -20.76097712 213.46622808 -20.43481445 211.6809082 C-19.94447426 208.97597313 -19.48377981 206.26714809 -19.02539062 203.55664062 C-16.16427308 187.24703187 -16.16427308 187.24703187 -11 180 C-10.14461502 178.61774147 -9.29449052 177.23221597 -8.44921875 175.84375 C-7.53146273 174.39404622 -6.61074658 172.94621331 -5.6875 171.5 C-5.17823975 170.69884766 -4.66897949 169.89769531 -4.14428711 169.07226562 C-3.03002908 167.32083751 -1.91450011 165.57021747 -0.79785156 163.8203125 C1.10085472 160.84178793 2.9919486 157.85850844 4.8828125 154.875 C12.47434777 142.92268352 20.20023901 131.09191007 28.28564453 119.46777344 C30.15450082 116.77759979 32.01299296 114.08042494 33.87109375 111.3828125 C40.96657044 101.1061029 48.15644641 90.92159442 55.65991211 80.9375 C56.20268799 80.21175781 56.74546387 79.48601562 57.3046875 78.73828125 C58.0160083 77.79529175 58.0160083 77.79529175 58.74169922 76.83325195 C60.02928558 74.95733306 61.0319143 73.05640048 62 71 C61.21496094 70.154375 60.42992187 69.30875 59.62109375 68.4375 C53.05623657 61.35452989 46.58382022 54.22157904 40.33203125 46.859375 C34.7886137 40.34286701 29.15556452 33.95408846 23.31005859 27.70678711 C19.2807419 23.37250226 15.52850395 18.87190253 11.83984375 14.2421875 C10.0922276 12.0229624 10.0922276 12.0229624 8.25390625 10.3203125 C7 9 7 9 7 7 C6.34 7 5.68 7 5 7 C3.7109375 5.46875 3.7109375 5.46875 2.375 3.5 C1.92898438 2.8503125 1.48296875 2.200625 1.0234375 1.53125 C0.68570312 1.0259375 0.34796875 0.520625 0 0 Z " fill="#F74E3E" transform="translate(472,466)"/>
<path d="M0 0 C4.13621084 3.3810038 7.81316569 6.66590534 11 11 C8.37738022 14.47482117 5.75470571 17.15924568 2.3125 19.8125 C-6.9791963 27.24334237 -15.62041613 35.55936855 -24 44 C-18.78391088 48.81591297 -13.38897949 53.36087121 -7.8125 57.75 C-7.23097168 58.20930908 -6.64944336 58.66861816 -6.05029297 59.1418457 C-2.46919631 61.93986368 1.1885726 64.52459647 5 67 C3.62815653 71.06498881 1.77931541 73.67396561 -1.125 76.8125 C-1.84945312 77.60269531 -2.57390625 78.39289063 -3.3203125 79.20703125 C-3.87460937 79.79871094 -4.42890625 80.39039063 -5 81 C-8.61707406 79.38860208 -11.5097127 77.18105107 -14.625 74.75 C-15.18131104 74.31743896 -15.73762207 73.88487793 -16.31079102 73.43920898 C-17.5408417 72.4822426 -18.7697058 71.52374964 -19.99755859 70.56396484 C-22.11607878 68.9093391 -24.23921149 67.26077597 -26.36328125 65.61328125 C-35.6028203 58.44351008 -44.81319644 51.23719251 -54 44 C-53.45472656 43.60039063 -52.90945313 43.20078125 -52.34765625 42.7890625 C-48.64951748 39.97084693 -45.1208679 36.94802763 -41.55859375 33.9609375 C-39 32 -39 32 -36 31 C-36 30.34 -36 29.68 -36 29 C-33.9727023 27.27664498 -31.93469973 25.66183893 -29.8125 24.0625 C-24.8332174 20.23786132 -19.95432591 16.33666559 -15.1875 12.25 C-10.23739225 8.01475795 -5.19429294 3.93263006 0 0 Z " fill="#F96C34" transform="translate(490,506)"/>
<path d="M0 0 C2.72690684 3.29632624 5.0929763 6.61713644 7.28515625 10.2890625 C8.19744995 11.81273437 8.19744995 11.81273437 9.12817383 13.3671875 C9.76650146 14.44226563 10.4048291 15.51734375 11.0625 16.625 C11.72209717 17.7284375 12.38169434 18.831875 13.0612793 19.96875 C16.20104883 25.23501881 19.3106968 30.51638017 22.359375 35.8359375 C23.11335571 37.15150635 23.11335571 37.15150635 23.88256836 38.49365234 C24.81849628 40.13412289 25.74921337 41.77758002 26.67407227 43.42431641 C28.66889567 47.35290367 28.66889567 47.35290367 32 50 C32.34861816 51.66353667 32.67904298 53.33090579 33 55 C33.78402619 56.79367635 34.63000413 58.56092335 35.51953125 60.3046875 C36.04144043 61.3472168 36.56334961 62.38974609 37.10107422 63.46386719 C37.66584473 64.58954102 38.23061523 65.71521484 38.8125 66.875 C60.78440959 111.64863859 82.43179332 168.44854385 66.28613281 218.19970703 C63.92874781 224.97757409 61.1226766 231.11807778 57 237 C56.34 236.34 55.68 235.68 55 235 C55.60183749 232.97954558 56.27306096 230.97888961 57 229 C57.66 228.67 58.32 228.34 59 228 C63.9666753 219.36048919 65.13020485 208.64875569 67 199 C67.17869629 198.23204102 67.35739258 197.46408203 67.54150391 196.67285156 C68.44378177 191.41292714 68.18591416 186.03268616 68.18530273 180.70776367 C68.18748971 178.57255123 68.20567533 176.43785565 68.22460938 174.30273438 C68.2275439 172.93229342 68.2295283 171.56185003 68.23046875 170.19140625 C68.23457764 168.95592041 68.23868652 167.72043457 68.24291992 166.44750977 C67.99692854 162.95640994 67.21178095 160.26583765 66 157 C65.55201293 154.6098251 65.13808102 152.21312942 64.75 149.8125 C63.21419541 140.99691942 60.52648177 132.65233447 57.71240234 124.17431641 C56.71542538 121.13145252 55.79539483 118.06677014 54.875 115 C52.17463396 106.19299705 49.31073208 97.13990313 44.92578125 89.0078125 C42.66219678 84.79833963 41.50781478 81.9218522 42 77 C41.34 77 40.68 77 40 77 C38.33333333 73.66666667 36.66666667 70.33333333 35 67 C34.6184375 66.2884375 34.236875 65.576875 33.84375 64.84375 C32.76351944 62.48324619 32.85754986 60.56410249 33 58 C32.38640625 57.76023437 31.7728125 57.52046875 31.140625 57.2734375 C28.49434705 55.69919186 27.9272755 54.43738036 26.75 51.625 C26.41484375 50.85414063 26.0796875 50.08328125 25.734375 49.2890625 C25 47 25 47 25 43 C24.13375 42.7215625 24.13375 42.7215625 23.25 42.4375 C19.39078309 39.9718892 17.63378385 35.76554073 16.125 31.5625 C14.67117764 28.25101575 12.5397811 25.74064463 10.2421875 22.96484375 C9 21 9 21 9 17 C8.34 17 7.68 17 7 17 C3 10.25 3 10.25 3 8 C2.34 8 1.68 8 1 8 C1.08378906 8.556875 1.16757812 9.11375 1.25390625 9.6875 C2.13772323 16.31053358 2.7034613 23.07446192 -1 29 C-0.34 29.33 0.32 29.66 1 30 C0.38218351 34.20267758 -0.25721915 38.40133284 -0.91650391 42.59765625 C-1.13758501 44.02448715 -1.35282514 45.45223618 -1.56201172 46.88085938 C-1.86441408 48.93891525 -2.18793907 50.99271226 -2.515625 53.046875 C-2.70415039 54.28276367 -2.89267578 55.51865234 -3.08691406 56.79199219 C-4.08528035 60.29962134 -5.21575112 61.71472045 -8 64 C-9.20272819 61.59454362 -9.10071472 60.05003047 -9.0625 57.375 C-9.05347656 56.55773437 -9.04445313 55.74046875 -9.03515625 54.8984375 C-9.02355469 54.27195312 -9.01195312 53.64546875 -9 53 C-8.34 53.33 -7.68 53.66 -7 54 C-4.19811528 37.53294526 -1.48771164 21.30427085 -1.140625 4.56640625 C-1 1 -1 1 0 0 Z " fill="#D4247E" transform="translate(623,363)"/>
<path d="M0 0 C0.67578125 1.6953125 0.67578125 1.6953125 1 4 C-0.08203125 6.3046875 -0.08203125 6.3046875 -1.8125 8.875 C-2.45445312 9.83664062 -3.09640625 10.79828125 -3.7578125 11.7890625 C-6.61254161 15.87719374 -9.4949829 19.94539363 -12.4465332 23.96435547 C-14.50359681 26.78742137 -16.39974106 29.61408848 -18.11328125 32.66015625 C-19.62626984 35.33842798 -21.17287693 37.72754524 -23 40.1875 C-27.27815405 46.19176393 -30.98512404 52.52741529 -34.73632812 58.86791992 C-38.97603535 66.02623607 -38.97603535 66.02623607 -41.265625 69.41796875 C-47.06123849 78.04612306 -48.84342349 88.72288925 -49.75 98.921875 C-50.16526228 102.37374267 -51.08620364 105.64941335 -52 109 C-50.02 108.505 -50.02 108.505 -48 108 C-47.9175 107.43410156 -47.835 106.86820313 -47.75 106.28515625 C-46.76507817 103.28422255 -45.17103622 101.72538018 -43 99.4375 C-38.8370913 94.9564072 -34.95385422 90.32362834 -31.140625 85.54296875 C-28.88443005 82.86270796 -26.57600779 80.37555685 -24 78 C-23.34 78 -22.68 78 -22 78 C-21.9071875 77.13375 -21.9071875 77.13375 -21.8125 76.25 C-21 74 -21 74 -18.8125 72.3125 C-16.15770087 70.12966516 -14.96376467 68.55087748 -13.1875 65.6875 C-10.5412604 61.51247432 -7.54778633 58.67905933 -3.75390625 55.5546875 C-1.57666238 53.6247475 -0.34890417 51.56291792 1 49 C3.0625 46.1875 3.0625 46.1875 5 44 C5.66 44 6.32 44 7 44 C7.66 42.68 8.32 41.36 9 40 C10.485 40.495 10.485 40.495 12 41 C11.38253906 41.66644531 10.76507812 42.33289063 10.12890625 43.01953125 C5.82184484 47.7068203 1.61162122 52.40818201 -2.375 57.375 C-6.24154184 62.1706049 -10.34851983 66.66878667 -14.5559082 71.16137695 C-18.47892724 75.37411123 -22.11903719 79.76404453 -25.72265625 84.25390625 C-28.21826862 87.26319526 -30.83773459 90.13930487 -33.5 93 C-37.85870043 97.68628543 -41.96709561 102.52233988 -45.984375 107.5078125 C-48.59099903 110.73073136 -51.28543427 113.86780877 -54 117 C-54.66 116.34 -55.32 115.68 -56 115 C-55.73672439 112.13035318 -55.35275675 109.41737652 -54.83984375 106.58984375 C-54.69349991 105.74837296 -54.54715607 104.90690216 -54.39637756 104.03993225 C-54.08167907 102.25255596 -53.76097712 100.46622808 -53.43481445 98.6809082 C-52.94447426 95.97597313 -52.48377981 93.26714809 -52.02539062 90.55664062 C-49.16427308 74.24703187 -49.16427308 74.24703187 -44 67 C-43.14461502 65.61774147 -42.29449052 64.23221597 -41.44921875 62.84375 C-40.53146273 61.39404622 -39.61074658 59.94621331 -38.6875 58.5 C-37.92360962 57.29827148 -37.92360962 57.29827148 -37.14428711 56.07226562 C-36.03002908 54.32083751 -34.91450011 52.57021747 -33.79785156 50.8203125 C-31.89914528 47.84178793 -30.0080514 44.85850844 -28.1171875 41.875 C-8.71992602 11.33887991 -8.71992602 11.33887991 0 0 Z " fill="#F38239" transform="translate(505,579)"/>
<path d="M0 0 C0.99 0.495 0.99 0.495 2 1 C1.67 1.66 1.34 2.32 1 3 C-1.05267614 7.51588751 -2.01007494 12.16621697 -3 17 C-3.33 17 -3.66 17 -4 17 C-4 14.69 -4 12.38 -4 10 C-4.66 10 -5.32 10 -6 10 C-6 10.99 -6 11.98 -6 13 C-6.66 13 -7.32 13 -8 13 C-8.2371875 13.55300781 -8.474375 14.10601562 -8.71875 14.67578125 C-10.30842845 17.55949674 -12.28516067 19.75333405 -14.5 22.1875 C-15.2940625 23.06792969 -16.088125 23.94835937 -16.90625 24.85546875 C-19 27 -19 27 -21 28 C-21.226875 28.680625 -21.45375 29.36125 -21.6875 30.0625 C-23.73388406 34.64250242 -27.42673329 39.71336665 -32 42 C-32.94317383 43.66150436 -33.83026215 45.35507009 -34.6875 47.0625 C-37.46601933 52.29185087 -40.56950108 57.01483474 -45 61 C-45.66 61 -46.32 61 -47 61 C-46.67 61.99 -46.34 62.98 -46 64 C-47.1875 65.83984375 -47.1875 65.83984375 -49 67.9375 C-56.62113576 77.32432463 -61.77908531 88.2554862 -67.04638672 99.07299805 C-67.68266402 100.35874734 -68.33546998 101.63644705 -69.00439453 102.90551758 C-71.75465388 108.16725714 -73.68165797 113.54285932 -75.5 119.1875 C-75.80043213 120.10426514 -76.10086426 121.02103027 -76.41040039 121.96557617 C-78.68989206 128.95147182 -80.89680981 135.95888502 -83 143 C-83.66 143 -84.32 143 -85 143 C-85.33 144.98 -85.66 146.96 -86 149 C-86.33 149 -86.66 149 -87 149 C-82.47076198 93.51683428 -36.2271742 39.00650767 0 0 Z " fill="#EF8543" transform="translate(422,371)"/>
<path d="M0 0 C-0.88816406 0.54785156 -1.77632812 1.09570312 -2.69140625 1.66015625 C-14.92446917 9.23992199 -26.97790882 17.09078815 -39 25 C-39.86512207 25.56654297 -40.73024414 26.13308594 -41.62158203 26.71679688 C-42.42837402 27.24853516 -43.23516602 27.78027344 -44.06640625 28.328125 C-44.77869385 28.79637695 -45.49098145 29.26462891 -46.22485352 29.74707031 C-48.12906938 31.01576972 -48.12906938 31.01576972 -50 33 C-51.19629264 33.6477487 -52.40728031 34.26849097 -53.625 34.875 C-62.67320655 39.80641804 -70.66452377 46.6298599 -78.78125 52.93359375 C-79.3680957 53.38839111 -79.95494141 53.84318848 -80.55957031 54.31176758 C-82.15277449 55.54946909 -83.74062969 56.79404715 -85.328125 58.0390625 C-87.52034908 59.6479755 -89.5250073 60.9039318 -92 62 C-93.39763512 60.77288246 -94.79301472 59.54319582 -96.1875 58.3125 C-96.96480469 57.62800781 -97.74210937 56.94351563 -98.54296875 56.23828125 C-101.1115589 53.89837321 -103.55811103 51.47166811 -106 49 C-106.96418279 48.03449574 -107.92904609 47.06967066 -108.89453125 46.10546875 C-111.59635417 43.40364583 -114.29817708 40.70182292 -117 38 C-116.34 37.34 -115.68 36.68 -115 36 C-113.82460004 36.92652701 -112.65989423 37.86663387 -111.5 38.8125 C-110.8503125 39.33457031 -110.200625 39.85664062 -109.53125 40.39453125 C-108 42 -108 42 -108 45 C-106.90171875 45.0928125 -106.90171875 45.0928125 -105.78125 45.1875 C-101.22062777 46.51981661 -99.1810232 50.1559149 -96.28125 53.75 C-94.1710757 56.09192315 -94.1710757 56.09192315 -91.57421875 57.09375 C-87.69963157 56.95264212 -86.1435912 55.07028307 -83.3125 52.5 C-82.2580028 51.56714407 -81.20066931 50.63748516 -80.140625 49.7109375 C-79.35268555 49.01822754 -79.35268555 49.01822754 -78.54882812 48.31152344 C-75.61673531 45.82867309 -72.43676599 43.71376119 -69.25390625 41.5703125 C-66.92726655 39.98983125 -66.92726655 39.98983125 -64.56640625 38.02734375 C-61.06978608 35.26517348 -57.31471797 33.01549092 -53.5234375 30.68359375 C-51.36669671 29.24465369 -49.7843878 27.84663388 -48 26 C-46.43515163 25.08150204 -44.86602532 24.16959854 -43.27734375 23.29296875 C-39.21212372 20.98492787 -35.26450768 18.48181624 -31.2890625 16.0234375 C-28.39342592 14.24203637 -25.48388175 12.48870757 -22.5625 10.75 C-15.9032057 6.87977553 -15.9032057 6.87977553 -10 2 C-4.25475993 -1.37220613 -4.25475993 -1.37220613 0 0 Z " fill="#F28437" transform="translate(581,686)"/>
<path d="M0 0 C2.72690684 3.29632624 5.0929763 6.61713644 7.28515625 10.2890625 C8.19744995 11.81273437 8.19744995 11.81273437 9.12817383 13.3671875 C9.76650146 14.44226563 10.4048291 15.51734375 11.0625 16.625 C11.72209717 17.7284375 12.38169434 18.831875 13.0612793 19.96875 C16.20104883 25.23501881 19.3106968 30.51638017 22.359375 35.8359375 C23.11335571 37.15150635 23.11335571 37.15150635 23.88256836 38.49365234 C24.81849628 40.13412289 25.74921337 41.77758002 26.67407227 43.42431641 C28.66889567 47.35290367 28.66889567 47.35290367 32 50 C32.33333333 51.66666667 32.66666667 53.33333333 33 55 C33.53625 56.051875 34.0725 57.10375 34.625 58.1875 C35.305625 59.5796875 35.305625 59.5796875 36 61 C35.505 61.99 35.505 61.99 35 63 C34.7525 62.21625 34.505 61.4325 34.25 60.625 C33.28748379 57.88151144 33.28748379 57.88151144 31.0625 57.109375 C28.40434884 55.67961188 27.90248615 54.37816136 26.75 51.625 C26.41484375 50.85414063 26.0796875 50.08328125 25.734375 49.2890625 C25 47 25 47 25 43 C24.13375 42.7215625 24.13375 42.7215625 23.25 42.4375 C19.39078309 39.9718892 17.63378385 35.76554073 16.125 31.5625 C14.67117764 28.25101575 12.5397811 25.74064463 10.2421875 22.96484375 C9 21 9 21 9 17 C8.34 17 7.68 17 7 17 C3 10.25 3 10.25 3 8 C2.34 8 1.68 8 1 8 C1.08378906 8.556875 1.16757812 9.11375 1.25390625 9.6875 C2.13772323 16.31053358 2.7034613 23.07446192 -1 29 C-0.34 29.33 0.32 29.66 1 30 C0.38218351 34.20267758 -0.25721915 38.40133284 -0.91650391 42.59765625 C-1.13758501 44.02448715 -1.35282514 45.45223618 -1.56201172 46.88085938 C-1.86441408 48.93891525 -2.18793907 50.99271226 -2.515625 53.046875 C-2.70415039 54.28276367 -2.89267578 55.51865234 -3.08691406 56.79199219 C-4.08528035 60.29962134 -5.21575112 61.71472045 -8 64 C-9.20272819 61.59454362 -9.10071472 60.05003047 -9.0625 57.375 C-9.05347656 56.55773437 -9.04445313 55.74046875 -9.03515625 54.8984375 C-9.02355469 54.27195312 -9.01195312 53.64546875 -9 53 C-8.34 53.33 -7.68 53.66 -7 54 C-4.19811528 37.53294526 -1.48771164 21.30427085 -1.140625 4.56640625 C-1 1 -1 1 0 0 Z " fill="#D83177" transform="translate(623,363)"/>
<path d="M0 0 C5.18348393 1.72782798 7.77029429 6.75903614 11 11 C11.50402344 11.62777344 12.00804687 12.25554687 12.52734375 12.90234375 C15.42198267 16.64161895 16.89752734 20.20181606 18.2421875 24.72265625 C19.25231922 27.75825828 20.69319397 30.47525194 22.23046875 33.2734375 C23 35 23 35 23 38 C23.66 38 24.32 38 25 38 C34.51331346 57.99244555 36.50453803 82.32026432 32 104 C31.37157583 105.68145927 30.71049459 107.35154022 30 109 C29.67 110.19625 29.34 111.3925 29 112.625 C28 116 28 116 26 119 C25.60965103 112.49418383 26.83308954 106.79923118 28.265625 100.4609375 C29.21789676 95.97310357 29.7542655 91.57680502 30 87 C30.04125 86.27296875 30.0825 85.5459375 30.125 84.796875 C30.90604965 56.09330034 20.78008034 26.71843511 1.6875 5.20703125 C0 3 0 3 0 0 Z " fill="#DD336A" transform="translate(608,464)"/>
<path d="M0 0 C-11.74349765 5.43680447 -23.73604683 10.48572211 -36.38671875 13.3203125 C-39.80016983 14.20811592 -42.85648077 15.5826561 -46.0390625 17.08203125 C-49.50060359 18.70247379 -52.64961993 20.0337595 -56.5 19.9375 C-63.02189788 20.10054745 -67.41215285 24.93633052 -71.6875 29.3125 C-72.29110352 29.9219043 -72.89470703 30.53130859 -73.51660156 31.15917969 C-78.7376161 36.52865909 -83.38277634 42.26184474 -87.890625 48.234375 C-90 51 -90 51 -92 53 C-91.80294316 55.95585259 -91.05230264 56.94769736 -88.9375 59.0625 C-88.298125 59.701875 -87.65875 60.34125 -87 61 C-87 61.99 -87 62.98 -87 64 C-89 64 -89 64 -91.4375 61.75 C-93.47455686 59.5638902 -95.24017988 57.40115398 -97 55 C-90.07349672 46.02826937 -82.94611934 37.28544476 -75.49462891 28.74414062 C-73.82258383 26.84563315 -73.82258383 26.84563315 -71.86303711 23.99951172 C-68.70910404 20.22882184 -65.07613516 19.18977641 -60.46484375 17.8515625 C-59.63722031 17.59283356 -58.80959686 17.33410461 -57.95689392 17.0675354 C-56.19596756 16.51878309 -54.43229625 15.97877372 -52.66619873 15.44689941 C-48.11011122 14.07458021 -43.57337529 12.64103214 -39.03515625 11.2109375 C-38.15226929 10.93435303 -37.26938232 10.65776855 -36.35974121 10.37280273 C-28.95416144 8.03405184 -21.74056511 5.35014587 -14.60913086 2.27197266 C-5.24089049 -1.7469635 -5.24089049 -1.7469635 0 0 Z " fill="#F28D3E" transform="translate(551,659)"/>
<path d="M0 0 C0.66 0.33 1.32 0.66 2 1 C1.67 1.66 1.34 2.32 1 3 C-1.05267614 7.51588751 -2.01007494 12.16621697 -3 17 C-3.33 17 -3.66 17 -4 17 C-4 14.69 -4 12.38 -4 10 C-4.66 10 -5.32 10 -6 10 C-6 10.99 -6 11.98 -6 13 C-6.66 13 -7.32 13 -8 13 C-8.2371875 13.55300781 -8.474375 14.10601562 -8.71875 14.67578125 C-10.30842845 17.55949674 -12.28516067 19.75333405 -14.5 22.1875 C-15.2940625 23.06792969 -16.088125 23.94835937 -16.90625 24.85546875 C-19 27 -19 27 -21 28 C-21.226875 28.680625 -21.45375 29.36125 -21.6875 30.0625 C-23.73388406 34.64250242 -27.42673329 39.71336665 -32 42 C-32.94317383 43.66150436 -33.83026215 45.35507009 -34.6875 47.0625 C-37.46601933 52.29185087 -40.56950108 57.01483474 -45 61 C-45.66 61 -46.32 61 -47 61 C-46.67 61.99 -46.34 62.98 -46 64 C-47.32 64.99 -48.64 65.98 -50 67 C-48.66963612 60.46991322 -45.57934472 56.17450385 -41.5625 50.9375 C-40.93214844 50.10041504 -40.30179687 49.26333008 -39.65234375 48.40087891 C-37.78053276 45.92423425 -35.89346274 43.46011573 -34 41 C-33.50226074 40.35015137 -33.00452148 39.70030273 -32.49169922 39.03076172 C-22.18906419 25.61568119 -11.51367085 12.3969948 0 0 Z " fill="#EA7C4B" transform="translate(422,371)"/>
<path d="M0 0 C13.47624325 3.93315855 26.68418265 13.38091034 34.41796875 25.04296875 C35.27311506 27.91832649 34.28775442 29.33824547 33 32 C31.27587891 34.04882812 31.27587891 34.04882812 29.2265625 36.03125 C28.4840625 36.75957031 27.7415625 37.48789062 26.9765625 38.23828125 C25.81253906 39.35783203 25.81253906 39.35783203 24.625 40.5 C23.09408343 41.98724949 21.56537022 43.476771 20.0390625 44.96875 C19.32782227 45.66355469 18.61658203 46.35835937 17.88378906 47.07421875 C15.82808793 49.11046816 15.82808793 49.11046816 13.5859375 52.03125 C13.06257812 52.6809375 12.53921875 53.330625 12 54 C11.34 54 10.68 54 10 54 C9.77183594 54.55171875 9.54367187 55.1034375 9.30859375 55.671875 C7.62097934 58.67431736 5.49040986 60.8113945 3.0625 63.25 C2.18722656 64.14203125 1.31195312 65.0340625 0.41015625 65.953125 C-2 68 -2 68 -5 68 C-3.65365543 63.5937814 -1.80625626 61.56922298 2 59 C2.66 59 3.32 59 4 59 C4.3403125 57.9171875 4.3403125 57.9171875 4.6875 56.8125 C7.28561319 51.24511459 12.51867612 47.65544644 17.08203125 43.69140625 C20.59284291 40.59531369 23.7338344 37.3593661 26.625 33.6875 C27.40875 32.800625 28.1925 31.91375 29 31 C29.99 31 30.98 31 32 31 C31.505 28.03 31.505 28.03 31 25 C30.34 25 29.68 25 29 25 C28.79375 24.113125 28.5875 23.22625 28.375 22.3125 C25.54621435 15.49769822 19.35789075 12.95970776 13 10 C13 9.34 13 8.68 13 8 C11.8553125 7.8453125 11.8553125 7.8453125 10.6875 7.6875 C7.70096183 6.92350186 7.03307752 6.20250065 5 4 C3.33675599 2.99431758 1.67063747 1.99335201 0 1 C0 0.67 0 0.34 0 0 Z " fill="#DA416C" transform="translate(563,505)"/>
<path d="M0 0 C-11.74349765 5.43680447 -23.73604683 10.48572211 -36.38671875 13.3203125 C-39.79830051 14.20762973 -42.85320023 15.58208781 -46.03515625 17.078125 C-50.40467395 19.12823668 -53.33531111 20.38249841 -58 19 C-50.39330267 14.80593021 -42.27041683 12.23380407 -34.0625 9.5 C-22.21064774 5.61496433 -22.21064774 5.61496433 -10.73364258 0.76098633 C-6.87328674 -0.93352559 -3.96276671 -1.32092224 0 0 Z " fill="#F27539" transform="translate(551,659)"/>
<path d="M0 0 C0.66 0 1.32 0 2 0 C1.53937436 4.84108514 -0.84674256 7.84265678 -3.8125 11.5 C-4.25142578 12.05558594 -4.69035156 12.61117187 -5.14257812 13.18359375 C-6.0080764 14.27671936 -6.87921271 15.36540827 -7.75634766 16.44921875 C-8.93083366 17.91375253 -10.06640699 19.40924831 -11.19921875 20.90625 C-11.79347656 21.5971875 -12.38773438 22.288125 -13 23 C-13.66 23 -14.32 23 -15 23 C-15.38671875 23.87398437 -15.38671875 23.87398437 -15.78125 24.765625 C-17.09834017 27.1802903 -18.55088384 28.81740177 -20.5 30.75 C-21.1084375 31.36359375 -21.716875 31.9771875 -22.34375 32.609375 C-24 34 -24 34 -26 34 C-26 34.66 -26 35.32 -26 36 C-27.53125 37.5078125 -27.53125 37.5078125 -29.5 39.125 C-30.1496875 39.66382813 -30.799375 40.20265625 -31.46875 40.7578125 C-31.9740625 41.16773438 -32.479375 41.57765625 -33 42 C-33.66 41.67 -34.32 41.34 -35 41 C-33.74456576 37.23369729 -32.11311137 36.40558606 -29 34 C-26.37665229 31.50462047 -24.05903205 29.07813066 -21.875 26.1875 C-21.25625 25.465625 -20.6375 24.74375 -20 24 C-19.01 24 -18.02 24 -17 24 C-16.65775391 23.19369141 -16.65775391 23.19369141 -16.30859375 22.37109375 C-14.60030996 19.2757855 -12.36428199 16.72300127 -10.0625 14.0625 C-7.01539884 10.53637858 -4.39820516 7.00178115 -2 3 C-1.34 2.67 -0.68 2.34 0 2 C0 1.34 0 0.68 0 0 Z " fill="#D63C6A" transform="translate(676,600)"/>
<path d="M0 0 C-0.88816406 0.54785156 -1.77632812 1.09570312 -2.69140625 1.66015625 C-13.21110621 8.17849794 -23.58963936 14.90432441 -33.9453125 21.6796875 C-34.82848145 22.2571875 -35.71165039 22.8346875 -36.62158203 23.4296875 C-38.57674243 24.72055094 -40.50913446 26.03703095 -42.4375 27.3671875 C-45.64637019 29.41186393 -48.33150085 30.1195602 -52 31 C-49.49612692 27.39442277 -47.1112916 25.27344748 -43.2421875 23.22265625 C-40.32157894 21.63005959 -37.51469886 19.8778633 -34.6875 18.125 C-30.66304113 15.63631164 -26.62861084 13.17001159 -22.5625 10.75 C-15.9032057 6.87977553 -15.9032057 6.87977553 -10 2 C-4.25475993 -1.37220613 -4.25475993 -1.37220613 0 0 Z " fill="#F46D32" transform="translate(581,686)"/>
<path d="M0 0 C1.00289063 0.10183594 2.00578125 0.20367187 3.0390625 0.30859375 C3.80992187 0.39238281 4.58078125 0.47617187 5.375 0.5625 C5.375 1.2225 5.375 1.8825 5.375 2.5625 C6.28765625 2.35882813 7.2003125 2.15515625 8.140625 1.9453125 C13.58240317 1.16987281 18.7819179 2.42265044 24.125 3.4375 C25.16527344 3.62441406 26.20554687 3.81132812 27.27734375 4.00390625 C34.83479911 5.38243304 34.83479911 5.38243304 38.375 6.5625 C38.375 7.2225 38.375 7.8825 38.375 8.5625 C39.62216797 8.63597656 39.62216797 8.63597656 40.89453125 8.7109375 C41.98121094 8.78570312 43.06789063 8.86046875 44.1875 8.9375 C45.26644531 9.00710938 46.34539062 9.07671875 47.45703125 9.1484375 C50.375 9.5625 50.375 9.5625 53.375 11.5625 C40.51213101 10.09265623 27.7687484 8.06133416 15 5.9375 C12.06110188 5.45041109 9.12206154 4.96422669 6.18270874 4.47988892 C4.37059524 4.18113577 2.55875411 3.88072461 0.7472229 3.57846069 C-3.41635957 2.83943756 -3.41635957 2.83943756 -7.625 2.5625 C-7.625 1.9025 -7.625 1.2425 -7.625 0.5625 C-4.89657939 -0.80171031 -3.01546682 -0.31557211 0 0 Z " fill="#E56252" transform="translate(462.625,411.4375)"/>
<path d="M0 0 C0.99 0.33 1.98 0.66 3 1 C2.38253906 1.66644531 1.76507812 2.33289063 1.12890625 3.01953125 C-3.17815516 7.7068203 -7.38837878 12.40818201 -11.375 17.375 C-15.28773693 22.2242963 -19.42620306 26.80367415 -23.68115234 31.3503418 C-27.07366402 34.97642369 -30.34510702 38.6749088 -33.5 42.51171875 C-35.18803499 44.18656597 -36.83244923 45.05169654 -39 46 C-37.73882275 42.11137013 -36.54735833 40.10624401 -33 38 C-32.34 38 -31.68 38 -31 38 C-30.938125 37.4225 -30.87625 36.845 -30.8125 36.25 C-30 34 -30 34 -27.8125 32.3125 C-25.15770087 30.12966516 -23.96376467 28.55087748 -22.1875 25.6875 C-19.5412604 21.51247432 -16.54778633 18.67905933 -12.75390625 15.5546875 C-10.57666238 13.6247475 -9.34890417 11.56291792 -8 9 C-5.9375 6.1875 -5.9375 6.1875 -4 4 C-3.34 4 -2.68 4 -2 4 C-1.34 2.68 -0.68 1.36 0 0 Z " fill="#F48035" transform="translate(514,619)"/>
<path d="M0 0 C0.33 0 0.66 0 1 0 C2.01748048 8.3760447 2.60947744 16.67140679 1.43359375 25.0546875 C0.74594078 30.94701387 1.3666689 36.6804578 1.9375 42.5625 C2.03740234 43.66658203 2.13730469 44.77066406 2.24023438 45.90820312 C2.48551681 48.60630987 2.73893395 51.30338261 3 54 C2.34 53.67 1.68 53.34 1 53 C1 51.35 1 49.7 1 48 C0.34 48 -0.32 48 -1 48 C-2.16662308 41.50424269 -2.19128668 35.087879 -2.1875 28.5 C-2.18814453 27.34902832 -2.18878906 26.19805664 -2.18945312 25.01220703 C-2.13691024 16.51817277 -1.54406906 8.35451655 0 0 Z " fill="#EE7E41" transform="translate(334,520)"/>
<path d="M0 0 C0.95540867 3.03469352 1.00209142 4.96735608 0.19555664 8.03417969 C-0.00472641 8.81468689 -0.20500946 9.59519409 -0.41136169 10.39935303 C-0.63526077 11.23178528 -0.85915985 12.06421753 -1.08984375 12.921875 C-1.31321915 13.78186096 -1.53659454 14.64184692 -1.76673889 15.52789307 C-2.48143117 18.27101286 -3.20927316 21.01044568 -3.9375 23.75 C-4.42469888 25.61044927 -4.91103745 27.47112407 -5.39648438 29.33203125 C-6.5876933 33.89069669 -7.79070627 38.44610014 -9 43 C-9.66 43 -10.32 43 -11 43 C-11.66 46.63 -12.32 50.26 -13 54 C-13.33 54 -13.66 54 -14 54 C-13.75103363 47.34014966 -12.89978835 42.18145999 -9.921875 36.21484375 C-8.3913517 32.53769666 -8.25099438 28.95316154 -8 25 C-7.34 25 -6.68 25 -6 25 C-6.04125 23.824375 -6.0825 22.64875 -6.125 21.4375 C-6.13983635 17.27590326 -5.31170778 13.93512333 -4 10 C-3.34 10 -2.68 10 -2 10 C-2.185625 9.2575 -2.37125 8.515 -2.5625 7.75 C-2.99506795 5.03100146 -2.99713271 3.53815599 -2 1 C-1.34 0.67 -0.68 0.34 0 0 Z " fill="#EE7242" transform="translate(431,503)"/>
<path d="M0 0 C0.66 0.33 1.32 0.66 2 1 C1.67 1.66 1.34 2.32 1 3 C-1.05267614 7.51588751 -2.01007494 12.16621697 -3 17 C-3.33 17 -3.66 17 -4 17 C-4 14.69 -4 12.38 -4 10 C-4.66 10 -5.32 10 -6 10 C-6 10.99 -6 11.98 -6 13 C-6.66 13 -7.32 13 -8 13 C-8.35191406 13.82757813 -8.35191406 13.82757813 -8.7109375 14.671875 C-10.32848158 17.59325764 -12.36450195 19.79574497 -14.625 22.25 C-15.44226563 23.14203125 -16.25953125 24.0340625 -17.1015625 24.953125 C-17.72804688 25.62859375 -18.35453125 26.3040625 -19 27 C-19.64038086 25.19604492 -19.64038086 25.19604492 -20 23 C-18.26686529 20.57963969 -16.56219011 18.49243229 -14.5625 16.3125 C-14.0149707 15.69616699 -13.46744141 15.07983398 -12.90332031 14.44482422 C-11.27926101 12.62025789 -9.64008476 10.81015254 -8 9 C-6.41550884 7.20935719 -4.83195572 5.41788315 -3.25 3.625 C-2.16801264 2.41546128 -1.08528458 1.20658109 0 0 Z " fill="#EE6C47" transform="translate(422,371)"/>
<path d="M0 0 C2.75199654 4.12799481 3.24011269 8.34533748 4.21875 13.1640625 C4.4765625 14.09992188 4.734375 15.03578125 5 16 C5.66 16.33 6.32 16.66 7 17 C7 18.32 7 19.64 7 21 C7.25509452 22.52480033 7.5497672 24.04329315 7.875 25.5546875 C8.05546875 26.41707031 8.2359375 27.27945312 8.421875 28.16796875 C8.80569613 29.96518524 9.19109978 31.76206453 9.578125 33.55859375 C10.52965657 38.11914864 11.24766256 42.30989031 11 47 C10.505 45.515 10.505 45.515 10 44 C9.34 44 8.68 44 8 44 C7.89453857 43.45174561 7.78907715 42.90349121 7.68041992 42.33862305 C5.40738851 30.10368292 5.40738851 30.10368292 2.3125 18.0625 C0.57690571 12.13884123 0.28312934 6.14097775 0 0 Z " fill="#DE2E6E" transform="translate(601,356)"/>
<path d="M0 0 C0.76953125 1.671875 0.76953125 1.671875 1 4 C-0.80078125 6.578125 -0.80078125 6.578125 -3.3125 9.25 C-4.13363281 10.14203125 -4.95476563 11.0340625 -5.80078125 11.953125 C-8 14 -8 14 -10 14 C-10.22816406 14.55171875 -10.45632813 15.1034375 -10.69140625 15.671875 C-12.37902066 18.67431736 -14.50959014 20.8113945 -16.9375 23.25 C-17.81277344 24.14203125 -18.68804688 25.0340625 -19.58984375 25.953125 C-22 28 -22 28 -25 28 C-23.65365543 23.5937814 -21.80625626 21.56922298 -18 19 C-17.34 19 -16.68 19 -16 19 C-15.773125 18.278125 -15.54625 17.55625 -15.3125 16.8125 C-12.68106963 11.17372064 -7.34174785 7.50963963 -2.671875 3.55078125 C-0.89673637 2.08649533 -0.89673637 2.08649533 0 0 Z " fill="#EB3758" transform="translate(583,545)"/>
<path d="M0 0 C5.18348393 1.72782798 7.77029429 6.75903614 11 11 C11.50402344 11.62777344 12.00804687 12.25554687 12.52734375 12.90234375 C15.42481527 16.64527808 16.89940231 20.20949177 18.24609375 24.734375 C19.01236637 27.03716319 19.985686 29.04771312 21.125 31.1875 C22.82797573 34.43095377 23.63211832 37.32118324 24 41 C21.97899651 38.97899651 21.2542307 37.61251221 20.1171875 35.03515625 C19.75850586 34.24004639 19.39982422 33.44493652 19.03027344 32.62573242 C18.6490332 31.77986572 18.26779297 30.93399902 17.875 30.0625 C13.61034022 20.82384732 8.65449481 13.21996168 2 5.5 C0 3 0 3 0 0 Z " fill="#DA3571" transform="translate(608,464)"/>
<path d="M0 0 C4.19469571 0.59924224 8.00999834 1.57499941 12 3 C12 3.66 12 4.32 12 5 C12.68964844 4.92523438 13.37929688 4.85046875 14.08984375 4.7734375 C17.98495924 5.07668139 20.25231021 6.57674815 23.5625 8.625 C24.67753906 9.29789062 25.79257812 9.97078125 26.94140625 10.6640625 C30.32493648 13.2481635 31.87442601 15.37249231 34 19 C30.88595273 17.53956592 27.99576604 15.78871858 25.07446289 13.97827148 C16.98691987 8.9817625 8.69181947 4.83426363 0 1 C0 0.67 0 0.34 0 0 Z " fill="#DC406C" transform="translate(561,435)"/>
<path d="M0 0 C3.43493576 0.59772664 6.44231496 1.47527784 9.64453125 2.84765625 C10.48564453 3.20537109 11.32675781 3.56308594 12.19335938 3.93164062 C13.05767578 4.30482422 13.92199219 4.67800781 14.8125 5.0625 C16.13797852 5.62807617 16.13797852 5.62807617 17.49023438 6.20507812 C19.66201124 7.13248554 21.83181367 8.06423634 24 9 C20.62065154 9.96862277 19.02391967 9.92663319 15.75 8.5625 C14.69039063 8.13130859 14.69039063 8.13130859 13.609375 7.69140625 C13.07828125 7.46324219 12.5471875 7.23507812 12 7 C12 8.98 12 10.96 12 13 C10.2925002 11.71937515 8.62626404 10.38232443 7 9 C7 8.34 7 7.68 7 7 C6.34 7 5.68 7 5 7 C3.7109375 5.46875 3.7109375 5.46875 2.375 3.5 C1.70597656 2.52546875 1.70597656 2.52546875 1.0234375 1.53125 C0.68570312 1.0259375 0.34796875 0.520625 0 0 Z " fill="#E26A57" transform="translate(472,466)"/>
<path d="M0 0 C0.33 0.66 0.66 1.32 1 2 C0.67 2.99 0.34 3.98 0 5 C-0.20140299 6.91332844 -0.36362014 8.83094049 -0.5 10.75 C-0.58636719 11.82894531 -0.67273438 12.90789063 -0.76171875 14.01953125 C-0.84035156 15.00308594 -0.91898437 15.98664062 -1 17 C-1.63201997 23.95221969 -3.86227551 30.38796843 -6 37 C-6.33 37 -6.66 37 -7 37 C-6.37350456 29.63842471 -5.33028957 22.40182933 -4.0625 15.125 C-3.89298828 14.10664062 -3.72347656 13.08828125 -3.54882812 12.0390625 C-3.37931641 11.059375 -3.20980469 10.0796875 -3.03515625 9.0703125 C-2.8844165 8.19133301 -2.73367676 7.31235352 -2.57836914 6.40673828 C-2.00611331 4.025439 -1.18578013 2.13384709 0 0 Z " fill="#EB8B49" transform="translate(458,651)"/>
<path d="M0 0 C0.99 0.33 1.98 0.66 3 1 C2.03900391 2.051875 2.03900391 2.051875 1.05859375 3.125 C0.19363281 4.07375 -0.67132812 5.0225 -1.5625 6 C-2.01850586 6.49894775 -2.47451172 6.99789551 -2.94433594 7.51196289 C-5.60975398 10.43763903 -8.20253986 13.40917098 -10.75 16.4375 C-13.54090762 19.66593708 -16.32317112 21.84770992 -20 24 C-18.64719767 20.87038266 -17.24487511 19.14494605 -14.5625 17.0625 C-11.59851627 14.62517454 -9.83332415 12.40474486 -8 9 C-5.9375 6.1875 -5.9375 6.1875 -4 4 C-3.34 4 -2.68 4 -2 4 C-1.34 2.68 -0.68 1.36 0 0 Z " fill="#EF783B" transform="translate(514,619)"/>
<path d="M0 0 C0.33 0 0.66 0 1 0 C0.41106967 5.38151446 -0.49497416 10.53495954 -1.84765625 15.78125 C-2.02380966 16.48020386 -2.19996307 17.17915771 -2.38145447 17.89929199 C-2.93733802 20.10068767 -3.49979075 22.30034035 -4.0625 24.5 C-4.44379781 26.00509733 -4.82466109 27.51030481 -5.20507812 29.015625 C-6.13170751 32.67837411 -7.06422644 36.3395769 -8 40 C-8.33 40 -8.66 40 -9 40 C-6.9 19.7 -6.9 19.7 -5 14 C-4.34 14 -3.68 14 -3 14 C-2.01 9.38 -1.02 4.76 0 0 Z " fill="#E37550" transform="translate(416,561)"/>
<path d="M0 0 C-1.08539062 0.67546875 -2.17078125 1.3509375 -3.2890625 2.046875 C-4.73440537 2.94786796 -6.17971616 3.84891236 -7.625 4.75 C-8.33785156 5.1934375 -9.05070313 5.636875 -9.78515625 6.09375 C-13.90406214 8.66334266 -17.97628242 11.2836733 -22 14 C-22.66 13.67 -23.32 13.34 -24 13 C-21.83330307 9.7499546 -20.3510269 8.8703406 -17 7 C-14.33629676 5.45133533 -12.18115464 4.18115464 -10 2 C-4.25475993 -1.37220613 -4.25475993 -1.37220613 0 0 Z " fill="#F05F39" transform="translate(581,686)"/>
<path d="M0 0 C4.74206405 2.43182772 4.74206405 2.43182772 5.84765625 4.8671875 C6 7 6 7 4.8125 8.9296875 C4.214375 9.57164062 3.61625 10.21359375 3 10.875 C2.35933594 11.56335938 1.71867188 12.25171875 1.05859375 12.9609375 C-1.83126015 15.82337343 -4.8491116 18.4278462 -8 21 C-8 17 -8 17 -6.50390625 15.3671875 C-5.86324219 14.87476563 -5.22257813 14.38234375 -4.5625 13.875 C-1.83429715 11.81128519 -1.83429715 11.81128519 0 9 C0.99 9 1.98 9 3 9 C2.67 7.02 2.34 5.04 2 3 C1.34 3 0.68 3 0 3 C0 2.01 0 1.02 0 0 Z " fill="#E43667" transform="translate(592,527)"/>
<path d="M0 0 C3.53848316 3.41750938 6.20715149 6.96588548 9 11 C8.67 11.66 8.34 12.32 8 13 C3.125 9.25 3.125 9.25 2 7 C1.34 13.27 0.68 19.54 0 26 C-0.33 26 -0.66 26 -1 26 C-1.16311941 17.28217363 -0.65655389 8.68761489 0 0 Z " fill="#D34C69" transform="translate(512,205)"/>
<path d="M0 0 C0.33 0 0.66 0 1 0 C1.38370315 3.79810506 1.31842535 5.53204157 -0.86328125 8.73828125 C-2.07564453 10.01251953 -2.07564453 10.01251953 -3.3125 11.3125 C-4.11300781 12.17488281 -4.91351562 13.03726563 -5.73828125 13.92578125 C-8 16 -8 16 -11 17 C-9.52818439 12.66498025 -7.2017333 9.28143997 -4.4375 5.6875 C-4.02564453 5.13771484 -3.61378906 4.58792969 -3.18945312 4.02148438 C-2.1550682 2.65866955 -1.08087744 1.32624296 0 0 Z " fill="#EE6442" transform="translate(519,559)"/>
<path d="M0 0 C4.04242536 3.63818283 6.72606502 7.74501819 8 13 C8.68838064 14.2198105 9.39893399 15.42723804 10.125 16.625 C10.74375 17.73875 11.3625 18.8525 12 20 C11.67 20.66 11.34 21.32 11 22 C10.7525 21.21625 10.505 20.4325 10.25 19.625 C9.30330239 16.87032852 9.30330239 16.87032852 7.09375 16.2421875 C3.92822198 14.3641317 3.46928796 11.90196394 2.25 8.5 C1.82203125 7.3346875 1.3940625 6.169375 0.953125 4.96875 C0 2 0 2 0 0 Z " fill="#D5287E" transform="translate(647,404)"/>
<path d="M0 0 C-2.98959945 1.35759589 -5.99107195 2.68580642 -9 4 C-9.8971875 4.39316406 -10.794375 4.78632812 -11.71875 5.19140625 C-12.5953125 5.56136719 -13.471875 5.93132813 -14.375 6.3125 C-15.18710937 6.65925781 -15.99921875 7.00601563 -16.8359375 7.36328125 C-19 8 -19 8 -22 7 C-7.4255677 -2.47518923 -7.4255677 -2.47518923 0 0 Z " fill="#F66531" transform="translate(551,659)"/>
<path d="M0 0 C2.93798266 3.40323505 4.30642379 7.1025124 5.6875 11.3125 C5.91244141 11.95123047 6.13738281 12.58996094 6.36914062 13.24804688 C7.82637182 17.61974047 8.21967691 21.41053374 8 26 C7.34 26 6.68 26 6 26 C5.66104344 24.27192682 5.32908475 22.54248026 5 20.8125 C4.814375 19.84957031 4.62875 18.88664063 4.4375 17.89453125 C4.03122388 15.2065794 3.92066428 12.71228981 4 10 C3.01 9.67 2.02 9.34 1 9 C0.67 6.03 0.34 3.06 0 0 Z " fill="#F11762" transform="translate(632,502)"/>
<path d="M0 0 C0.33 0.99 0.66 1.98 1 3 C0.443125 3.474375 -0.11375 3.94875 -0.6875 4.4375 C-2.81587775 6.79597264 -3.95174201 8.70415015 -5.375 11.5 C-7.64979222 15.80155414 -9.73843815 17.72055994 -14 20 C-10.54538781 12.51500692 -5.16689372 6.34574811 0 0 Z " fill="#EB744A" transform="translate(425,406)"/>
<path d="M0 0 C0.6953125 1.66015625 0.6953125 1.66015625 1 4 C-1.90845494 10.06078653 -5.95184887 15.56374597 -11 20 C-8.90765908 12.02295025 -5.07369299 6.4475671 0 0 Z " fill="#F76C30" transform="translate(505,579)"/>
<path d="M0 0 C0.95197282 3.03627436 0.99651609 5.03293913 0.2578125 8.1171875 C0.07863281 8.88933594 -0.10054688 9.66148437 -0.28515625 10.45703125 C-0.47980469 11.25496094 -0.67445313 12.05289062 -0.875 12.875 C-1.24882822 14.45539103 -1.6212536 16.03611464 -1.9921875 17.6171875 C-2.25660645 18.73818848 -2.25660645 18.73818848 -2.52636719 19.88183594 C-3.12788127 22.57190615 -3.5881769 25.2749578 -4 28 C-4.66 28 -5.32 28 -6 28 C-6 25.03 -6 22.06 -6 19 C-5.34 19 -4.68 19 -4 19 C-3.87882812 18.13117188 -3.75765625 17.26234375 -3.6328125 16.3671875 C-3.46523438 15.21476562 -3.29765625 14.06234375 -3.125 12.875 C-2.88136719 11.16957031 -2.88136719 11.16957031 -2.6328125 9.4296875 C-2.02568583 6.13921085 -1.13654367 3.14220897 0 0 Z " fill="#DF7858" transform="translate(414,401)"/>
<path d="M0 0 C0.66 0.33 1.32 0.66 2 1 C1.67 1.66 1.34 2.32 1 3 C-1.05267614 7.51588751 -2.01007494 12.16621697 -3 17 C-3.33 17 -3.66 17 -4 17 C-4 14.69 -4 12.38 -4 10 C-5.32 9.67 -6.64 9.34 -8 9 C-5.36 6.03 -2.72 3.06 0 0 Z " fill="#E17055" transform="translate(422,371)"/>
<path d="M0 0 C0.99 0.33 1.98 0.66 3 1 C2.43410156 1.54269531 1.86820313 2.08539062 1.28515625 2.64453125 C0.55167969 3.35996094 -0.18179688 4.07539062 -0.9375 4.8125 C-2.03384766 5.87404297 -2.03384766 5.87404297 -3.15234375 6.95703125 C-5.20834646 8.95536163 -5.20834646 8.95536163 -6 12 C-7.62890625 13.60546875 -7.62890625 13.60546875 -9.5625 15.1875 C-10.20316406 15.71730469 -10.84382812 16.24710938 -11.50390625 16.79296875 C-11.99761719 17.19128906 -12.49132812 17.58960938 -13 18 C-13.66 17.67 -14.32 17.34 -15 17 C-13.74456576 13.23369729 -12.11311137 12.40558606 -9 10 C-5.70067993 6.86162238 -2.78082688 3.60477558 0 0 Z " fill="#EF2657" transform="translate(656,624)"/>
<path d="M0 0 C2.21343399 3.71471966 2.87049383 7.67902182 3.625 11.875 C3.7590625 12.56980469 3.893125 13.26460938 4.03125 13.98046875 C4.78017667 18.03842856 5.14218874 21.87652641 5 26 C4.67 25.01 4.34 24.02 4 23 C3.34 23 2.68 23 2 23 C1.66227261 20.29215006 1.32969313 17.58383004 1 14.875 C0.90460937 14.11445313 0.80921875 13.35390625 0.7109375 12.5703125 C0.20169812 8.35090048 -0.10888068 4.25995656 0 0 Z " fill="#D53878" transform="translate(607,377)"/>
<path d="M0 0 C0 3.7045817 -1.24097533 4.63092306 -3.76367188 7.17382812 C-4.27478516 7.67333984 -4.78589844 8.17285156 -5.3125 8.6875 C-5.81201172 9.19861328 -6.31152344 9.70972656 -6.82617188 10.23632812 C-10.61999332 14 -10.61999332 14 -14 14 C-12.04011574 7.58583332 -7.50702313 5.27444619 -2 2 C-1.34 1.34 -0.68 0.68 0 0 Z " fill="#E24B58" transform="translate(572,559)"/>
<path d="M0 0 C0.66 0 1.32 0 2 0 C1.45347574 4.0629764 0.26521207 6.46693498 -2.25 9.6875 C-2.83265625 10.45449219 -3.4153125 11.22148438 -4.015625 12.01171875 C-6.21562094 14.21604539 -8.06015052 15.05215198 -11 16 C-10.60167969 15.48050781 -10.20335937 14.96101562 -9.79296875 14.42578125 C-7.46654855 11.36351038 -5.2203227 8.3698274 -3.25 5.0625 C-2 3 -2 3 0 2 C0 1.34 0 0.68 0 0 Z " fill="#E4216C" transform="translate(676,600)"/>
<path d="M0 0 C-2.54242712 3.06146933 -5.20468641 4.01341898 -8.9375 5.25 C-9.97777344 5.60578125 -11.01804687 5.9615625 -12.08984375 6.328125 C-14.94193823 6.98659513 -16.30556265 7.01284874 -19 6 C-6.76334702 -0.39784394 -6.76334702 -0.39784394 0 0 Z " fill="#F87D30" transform="translate(512,672)"/>
<path d="M0 0 C0.33 0.66 0.66 1.32 1 2 C0.06553465 4.03144641 -0.93224776 6.03533587 -2 8 C-2.66 8 -3.32 8 -4 8 C-4.020625 8.721875 -4.04125 9.44375 -4.0625 10.1875 C-5.44012505 14.32037516 -8.39356619 15.78717508 -12 18 C-10.18633597 13.87235084 -7.50853382 10.37940795 -4.875 6.75 C-4.17310547 5.77546875 -4.17310547 5.77546875 -3.45703125 4.78125 C-2.30725718 3.18564517 -1.15397434 1.59256975 0 0 Z " fill="#EB664A" transform="translate(450,372)"/>
<path d="M0 0 C0.66 0.33 1.32 0.66 2 1 C-0.31 3.64 -2.62 6.28 -5 9 C-4.34 10.32 -3.68 11.64 -3 13 C-2.67 13.66 -2.34 14.32 -2 15 C-5.81684226 13.44499019 -8.19195732 10.96404505 -11 8 C-9.9275 7.4225 -8.855 6.845 -7.75 6.25 C-4.6973471 4.51624176 -2.35402607 2.6365092 0 0 Z " fill="#EB814B" transform="translate(447,541)"/>
<path d="M0 0 C0.99 0.33 1.98 0.66 3 1 C5.70722233 6.5648459 5.62628347 12.92218903 6 19 C3.29259338 16.29259338 2.8989446 13.7373234 1.875 10.0625 C1.52179687 8.81597656 1.16859375 7.56945312 0.8046875 6.28515625 C0 3 0 3 0 0 Z " fill="#DD1A80" transform="translate(681,485)"/>
<path d="M0 0 C4.04665101 1.50739993 5.5639685 3.90234959 7.8125 7.5 C8.43769531 8.4796875 9.06289063 9.459375 9.70703125 10.46875 C10.13371094 11.3040625 10.56039062 12.139375 11 13 C10.67 13.66 10.34 14.32 10 15 C5.53070826 10.77900224 0.97186506 6.31712288 0 0 Z " fill="#E03C64" transform="translate(552,264)"/>
<path d="M0 0 C4.65294851 3.21617106 8.41555247 5.83110494 11 11 C11.98244845 12.34631825 12.97676564 13.68441297 14 15 C9.92623969 13.38989473 7.23492931 10.46177729 4.25 7.375 C3.74339844 6.859375 3.23679687 6.34375 2.71484375 5.8125 C1.47196098 4.54616661 0.23534724 3.2736856 -1 2 C-0.67 1.34 -0.34 0.68 0 0 Z " fill="#EE8E42" transform="translate(465,722)"/>
<path d="M0 0 C7.52906977 1.4244186 7.52906977 1.4244186 9.6875 4.0625 C10.120625 4.701875 10.55375 5.34125 11 6 C10.01 7.485 10.01 7.485 9 9 C4.44984107 7.48328036 2.49942736 3.83108947 0 0 Z " fill="#EC6247" transform="translate(472,466)"/>
<path d="M0 0 C0.33 0.99 0.66 1.98 1 3 C-0.14453125 5.26171875 -0.14453125 5.26171875 -1.8125 7.6875 C-2.35519531 8.49574219 -2.89789063 9.30398438 -3.45703125 10.13671875 C-3.96621094 10.75160156 -4.47539062 11.36648438 -5 12 C-5.66 12 -6.32 12 -7 12 C-6.6257368 6.63556087 -5.0040457 4.50353999 -1 1 C-0.67 0.67 -0.34 0.34 0 0 Z " fill="#EC544C" transform="translate(477,334)"/>
<path d="M0 0 C4.6756928 4.54581245 8.99961763 9.15715012 12 15 C11.67 15.66 11.34 16.32 11 17 C10.278125 15.948125 9.55625 14.89625 8.8125 13.8125 C7.0694481 11.34441796 5.46395843 9.48832396 3.25 7.375 C0.8282858 4.81874612 0.29592038 3.45240447 0 0 Z " fill="#D5476A" transform="translate(540,245)"/>
<path d="M0 0 C-9.41002278 4.40774487 -9.41002278 4.40774487 -14 5 C-14.33 5.99 -14.66 6.98 -15 8 C-15.99 8 -16.98 8 -18 8 C-16.97937414 5.2494998 -16.34652466 4.18723031 -13.72265625 2.76953125 C-12.84480469 2.45371094 -11.96695312 2.13789062 -11.0625 1.8125 C-10.18722656 1.48894531 -9.31195313 1.16539062 -8.41015625 0.83203125 C-3.05254777 -1.01751592 -3.05254777 -1.01751592 0 0 Z " fill="#F08B46" transform="translate(497,677)"/>
<path d="M0 0 C0.63671875 1.8046875 0.63671875 1.8046875 1 4 C-1.57856327 7.68366181 -3.6875406 10.40279281 -8 12 C-6.59023295 8.96147295 -4.91129772 6.4060405 -2.875 3.75 C-2.06675781 2.69039063 -2.06675781 2.69039063 -1.2421875 1.609375 C-0.83226562 1.07828125 -0.42234375 0.5471875 0 0 Z " fill="#EA6A49" transform="translate(437,390)"/>
<path d="M0 0 C7 8.75 7 8.75 7 14 C4 13 4 13 2.83203125 11.328125 C-0.55343511 4.42748092 -0.55343511 4.42748092 0 0 Z " fill="#DC3869" transform="translate(578,304)"/>
<path d="M0 0 C3.60001861 1.86207859 4.53489703 3.98986608 5.75 7.6875 C6.17985483 9.12111159 6.60082968 10.55754362 7 12 C6.01 12 5.02 12 4 12 C3.32645501 10.56570999 2.66140299 9.12742943 2 7.6875 C1.62875 6.88699219 1.2575 6.08648438 0.875 5.26171875 C0 3 0 3 0 0 Z " fill="#EA6A44" transform="translate(341,595)"/>
<path d="M0 0 C1.18589057 3.69481551 0.62016701 5.64375081 -1.03125 9.18359375 C-2.50040362 11.93825679 -4.1974863 14.45161857 -6 17 C-6.33 16.34 -6.66 15.68 -7 15 C-5.92591043 12.39525962 -4.79954367 9.90033962 -3.5625 7.375 C-3.22412109 6.66859375 -2.88574219 5.9621875 -2.53710938 5.234375 C-1.69845121 3.48618616 -0.85012153 1.74264314 0 0 Z " fill="#DB5C62" transform="translate(492,300)"/>
<path d="M0 0 C0.99 0.33 1.98 0.66 3 1 C1.68 1.99 0.36 2.98 -1 4 C-0.67 2.68 -0.34 1.36 0 0 Z M-5 4 C-2.9375 4.4375 -2.9375 4.4375 -1 5 C-3.97 7.475 -3.97 7.475 -7 10 C-6.125 5.125 -6.125 5.125 -5 4 Z " fill="#FB832A" transform="translate(483,681)"/>
<path d="M0 0 C0 4.13781054 -1.71509607 5.20919996 -4.5 8.1875 C-5.3353125 9.08855469 -6.170625 9.98960937 -7.03125 10.91796875 C-7.6809375 11.60503906 -8.330625 12.29210937 -9 13 C-9 8.90367503 -7.44601804 7.23932119 -5 4 C-2.25 1.625 -2.25 1.625 0 0 Z " fill="#EC8047" transform="translate(498,639)"/>
<path d="M0 0 C1.31534494 3.65857532 0.65468309 6.08026481 -0.4375 9.75 C-0.86869141 11.22726562 -0.86869141 11.22726562 -1.30859375 12.734375 C-1.53675781 13.48203125 -1.76492188 14.2296875 -2 15 C-4 12 -4 12 -3.8125 9.1875 C-2.952223 5.81256717 -1.66895028 3.04764834 0 0 Z " fill="#E66B4D" transform="translate(452,421)"/>
<path d="M0 0 C5.01113235 1.4317521 6.94469549 3.98445693 10 8 C6.02621451 8 4.87350205 6.65246343 2 4 C0.6875 1.75 0.6875 1.75 0 0 Z " fill="#F27A3D" transform="translate(452,560)"/>
<path d="M0 0 C3.42484079 3.08235671 5.94607159 6.89214317 8 11 C7.34 11.66 6.68 12.32 6 13 C5.731875 12.401875 5.46375 11.80375 5.1875 11.1875 C4.14592636 8.9691873 4.14592636 8.9691873 2.4375 7.625 C0.37721065 5.29597725 0.3360683 3.02461466 0 0 Z " fill="#CA3780" transform="translate(647,404)"/>
<path d="M0 0 C0 3.32058331 -0.43061972 5.08543662 -2 8 C-4.625 9.3125 -4.625 9.3125 -7 10 C-5.33248852 6.05860922 -2.77289351 3.2107188 0 0 Z " fill="#E67651" transform="translate(401,396)"/>
<path d="M0 0 C0.598125 0.763125 1.19625 1.52625 1.8125 2.3125 C3.8280426 4.91570291 3.8280426 4.91570291 5.75 6.625 C7 8 7 8 7 11 C6.34 11 5.68 11 5 11 C3.45703125 9.35546875 3.45703125 9.35546875 1.8125 7.1875 C1.26207031 6.47980469 0.71164062 5.77210938 0.14453125 5.04296875 C-0.23316406 4.36878906 -0.61085938 3.69460938 -1 3 C-0.67 2.01 -0.34 1.02 0 0 Z " fill="#F98B2C" transform="translate(457,712)"/>
<path d="M0 0 C4.28324091 2.51407619 6.64531705 4.12314139 8 9 C6.25 8.875 6.25 8.875 4 8 C0 2.77777778 0 2.77777778 0 0 Z " fill="#E44263" transform="translate(520,219)"/>
<path d="M0 0 C0.33 0 0.66 0 1 0 C1.45732667 5.71658336 0.52273754 8.48649253 -3 13 C-4.23593891 9.29218328 -3.5678132 8.32489747 -2.0625 4.8125 C-1.68222656 3.91144531 -1.30195312 3.01039063 -0.91015625 2.08203125 C-0.60980469 1.39496094 -0.30945313 0.70789063 0 0 Z " fill="#DC4268" transform="translate(633,578)"/>
<path d="M0 0 C4.83256305 0.41421969 6.82679218 2.46413986 10 6 C3.47692308 4.52307692 3.47692308 4.52307692 1.0625 1.875 C0.711875 1.25625 0.36125 0.6375 0 0 Z " fill="#F2743F" transform="translate(469,556)"/>
<path d="M0 0 C0.66 0.33 1.32 0.66 2 1 C0.625 2.5 0.625 2.5 -1 4 C-1.66 4 -2.32 4 -3 4 C-2.67 4.99 -2.34 5.98 -2 7 C-3.32 7.99 -4.64 8.98 -6 10 C-4.52307692 3.47692308 -4.52307692 3.47692308 -1.875 1.0625 C-1.25625 0.711875 -0.6375 0.36125 0 0 Z " fill="#F37A3D" transform="translate(378,428)"/>
<path d="M0 0 C0.8125 1.6875 0.8125 1.6875 1 4 C-1.4375 6.75 -1.4375 6.75 -4 9 C-4 5.00095031 -2.27413033 3.19799578 0 0 Z " fill="#EC6F45" transform="translate(505,579)"/>
<path d="M0 0 C2.11180592 2.57089417 3.66306057 4.63060567 4 8 C3.34 8.66 2.68 9.32 2 10 C-0.09350689 6.5980513 -0.17942163 3.94727588 0 0 Z " fill="#E02C6E" transform="translate(632,502)"/>
<path d="M0 0 C7.50769231 -0.36923077 7.50769231 -0.36923077 10 1.5 C10.495 2.2425 10.495 2.2425 11 3 C9 4 9 4 6.8359375 3.44140625 C6.02382813 3.15136719 5.21171875 2.86132812 4.375 2.5625 C3.55773437 2.27503906 2.74046875 1.98757813 1.8984375 1.69140625 C1.27195312 1.46324219 0.64546875 1.23507812 0 1 C0 0.67 0 0.34 0 0 Z " fill="#DE4665" transform="translate(550,431)"/>
<path d="M0 0 C0.33 0.66 0.66 1.32 1 2 C-0.78150459 6.65170644 -2.51851506 8.81981814 -7 11 C-5.22054913 6.95579349 -2.60470327 3.53921513 0 0 Z " fill="#E56953" transform="translate(450,372)"/>
<path d="M0 0 C0.99 0.33 1.98 0.66 3 1 C3.70381157 2.98723268 4.3711811 4.98777953 5 7 C5.66 7.33 6.32 7.66 7 8 C4 8 4 8 2 7 C1.26924352 4.6859378 0.59861742 2.35171131 0 0 Z " fill="#DC3569" transform="translate(584,319)"/>
<path d="M0 0 C0.33 0 0.66 0 1 0 C1.22893297 3.03336186 1.36475845 5.97465051 1 9 C-1 11.0625 -1 11.0625 -3 12 C-2.68950274 10.56206608 -2.3765224 9.1246682 -2.0625 7.6875 C-1.88847656 6.88699219 -1.71445312 6.08648437 -1.53515625 5.26171875 C-1 3 -1 3 0 0 Z " fill="#D85365" transform="translate(501,275)"/>
<path d="M0 0 C0.33 0 0.66 0 1 0 C1.31563182 5.26053037 0.66590937 8.44573816 -2 13 C-3.18771723 9.57056481 -2.80226223 7.62215325 -1.5625 4.25 C-1.27503906 3.45078125 -0.98757813 2.6515625 -0.69140625 1.828125 C-0.46324219 1.22484375 -0.23507812 0.6215625 0 0 Z " fill="#E38D59" transform="translate(341,494)"/>
<path d="M0 0 C0.66 0.33 1.32 0.66 2 1 C0.02 3.31 -1.96 5.62 -4 8 C-4.33 6.68 -4.66 5.36 -5 4 C-3.35 2.68 -1.7 1.36 0 0 Z " fill="#F5713E" transform="translate(396,404)"/>
<path d="M0 0 C0.66 0 1.32 0 2 0 C1.8125 2.3125 1.8125 2.3125 1 5 C-1.5625 6.8125 -1.5625 6.8125 -4 8 C-2.87548273 5.0280615 -1.77706209 2.66559313 0 0 Z " fill="#E65E55" transform="translate(467,347)"/>
<path d="M0 0 C0.99 0.33 1.98 0.66 3 1 C-0.96 4.465 -0.96 4.465 -5 8 C-5 7.01 -5 6.02 -5 5 C-4.01 4.67 -3.02 4.34 -2 4 C-0.79117904 1.99983534 -0.79117904 1.99983534 0 0 Z " fill="#F46B30" transform="translate(514,619)"/>
<path d="M0 0 C0.33 0.66 0.66 1.32 1 2 C0.06421005 4.35981813 -0.93347808 6.69631264 -2 9 C-2.66 8.34 -3.32 7.68 -4 7 C-3.39816251 4.97954558 -2.72693904 2.97888961 -2 1 C-1.34 0.67 -0.68 0.34 0 0 Z " fill="#E11E72" transform="translate(682,591)"/>
<path d="M0 0 C1.98 1.65 3.96 3.3 6 5 C5.67 5.66 5.34 6.32 5 7 C2.5 5.75 2.5 5.75 0 4 C0 2.68 0 1.36 0 0 Z " fill="#EE4C46" transform="translate(522,520)"/>
<path d="M0 0 C-0.33 1.32 -0.66 2.64 -1 4 C-2.65 4.33 -4.3 4.66 -6 5 C-6 4.34 -6 3.68 -6 3 C-2.53846154 0 -2.53846154 0 0 0 Z " fill="#EB3251" transform="translate(638,643)"/>
<path d="M0 0 C0.99 0 1.98 0 3 0 C2.39816251 2.02045442 1.72693904 4.02111039 1 6 C0.01 6.495 0.01 6.495 -1 7 C-0.67 4.69 -0.34 2.38 0 0 Z " fill="#F4833C" transform="translate(353,466)"/>
<path d="M0 0 C0.66 0 1.32 0 2 0 C3.125 6.75 3.125 6.75 2 9 C1.34 9 0.68 9 0 9 C0 6.03 0 3.06 0 0 Z " fill="#EF7746" transform="translate(408,420)"/>
<path d="M0 0 C3.65316671 1.24976756 4.78065836 1.67098753 7 5 C6.67 5.99 6.34 6.98 6 8 C4.02 5.36 2.04 2.72 0 0 Z " fill="#FC8726" transform="translate(474,731)"/>
<path d="M0 0 C-1.98 1.32 -3.96 2.64 -6 4 C-6.66 3.67 -7.32 3.34 -8 3 C-5.45189726 -0.82215411 -4.39145359 -1.46381786 0 0 Z " fill="#ED6A3E" transform="translate(565,696)"/>
<path d="M0 0 C2.0625 1.75 2.0625 1.75 4 4 C3.75 6.25 3.75 6.25 3 8 C0.37613513 4.93882432 0 4.26826873 0 0 Z " fill="#EA5F46" transform="translate(361,629)"/>
<path d="M0 0 C0.99 0 1.98 0 3 0 C3.66 1.32 4.32 2.64 5 4 C4.01 5.485 4.01 5.485 3 7 C0 2.25 0 2.25 0 0 Z " fill="#E86849" transform="translate(351,616)"/>
<path d="M0 0 C0.33 0 0.66 0 1 0 C1 1.65 1 3.3 1 5 C0.01 5.33 -0.98 5.66 -2 6 C-2.33 6.99 -2.66 7.98 -3 9 C-3.33 8.34 -3.66 7.68 -4 7 C-3.22265625 5.2734375 -3.22265625 5.2734375 -2.0625 3.375 C-1.381875 2.26125 -0.70125 1.1475 0 0 Z " fill="#DD4263" transform="translate(628,591)"/>
<path d="M0 0 C1.80330533 3.60661066 2.46599103 6.08393425 3 10 C2.01 9.67 1.02 9.34 0 9 C0 6.03 0 3.06 0 0 Z " fill="#CA2F84" transform="translate(680,476)"/>
<path d="M0 0 C2.92879371 0.62759865 5.36095629 1.58622659 8 3 C8 3.33 8 3.66 8 4 C5.69 3.67 3.38 3.34 1 3 C0.67 2.01 0.34 1.02 0 0 Z " fill="#ED2E64" transform="translate(575,440)"/>
<path d="M0 0 C1.32 0.33 2.64 0.66 4 1 C4.33 2.98 4.66 4.96 5 7 C2.47411298 4.63707344 1.11179163 3.33537489 0 0 Z " fill="#E51A77" transform="translate(642,399)"/>
<path d="M0 0 C0.33 0 0.66 0 1 0 C0.38461538 6.52307692 0.38461538 6.52307692 -1.5625 8.9375 C-2.036875 9.288125 -2.51125 9.63875 -3 10 C-1.125 2.25 -1.125 2.25 0 0 Z " fill="#F73D4E" transform="translate(500,283)"/>
<path d="M0 0 C0.33 0 0.66 0 1 0 C1 3.3 1 6.6 1 10 C0.67 10 0.34 10 0 10 C0 6.7 0 3.4 0 0 Z " fill="#C4347B" transform="translate(695,545)"/>
<path d="M0 0 C1 4 1 4 1 4 Z " fill="#C4327E" transform="translate(695,532)"/>
<path d="M0 0 C1 4 1 4 1 4 Z " fill="#DB3A77" transform="translate(620,377)"/>
<path d="M0 0 C1 4 1 4 1 4 Z " fill="#D93D6F" transform="translate(589,320)"/>
<path d="M0 0 C3 1 3 1 3 1 Z " fill="#F15D4E" transform="translate(489,420)"/>
<path d="M0 0 C2 1 2 1 2 1 Z " fill="#E2534E" transform="translate(604,671)"/>
<path d="" fill="#CD3579" transform="translate(0,0)"/>
<path d="" fill="#CA2F79" transform="translate(0,0)"/>
<path d="" fill="#EF8348" transform="translate(0,0)"/>
<path d="" fill="#C3337E" transform="translate(0,0)"/>
<path d="" fill="#F18B49" transform="translate(0,0)"/>
<path d="M0 0 C2 1 2 1 2 1 Z " fill="#EF5A4F" transform="translate(521,525)"/>
<path d="" fill="#E3336F" transform="translate(0,0)"/>
<path d="" fill="#C63080" transform="translate(0,0)"/>
<path d="" fill="#C93180" transform="translate(0,0)"/>
<path d="" fill="#C93282" transform="translate(0,0)"/>
<path d="" fill="#C7327E" transform="translate(0,0)"/>
<path d="" fill="#DE3A6B" transform="translate(0,0)"/>
<path d="M0 0 C2 1 2 1 2 1 Z " fill="#E53F64" transform="translate(564,438)"/>
<path d="" fill="#F1684A" transform="translate(0,0)"/>
<path d="" fill="#DD3673" transform="translate(0,0)"/>
<path d="" fill="#DE3877" transform="translate(0,0)"/>
<path d="" fill="#E27959" transform="translate(0,0)"/>
<path d="" fill="#D73E6F" transform="translate(0,0)"/>
<path d="" fill="#E7555F" transform="translate(0,0)"/>
<path d="" fill="#DF5067" transform="translate(0,0)"/>
<path d="" fill="#D7476A" transform="translate(0,0)"/>
<path d="" fill="#858888" transform="translate(0,0)"/>
<path d="" fill="#878889" transform="translate(0,0)"/>
<path d="" fill="#878988" transform="translate(0,0)"/>
<path d="" fill="#878889" transform="translate(0,0)"/>
<path d="" fill="#868688" transform="translate(0,0)"/>
<path d="" fill="#8B8685" transform="translate(0,0)"/>
<path d="" fill="#878989" transform="translate(0,0)"/>
<path d="" fill="#8A8787" transform="translate(0,0)"/>
<path d="" fill="#86878A" transform="translate(0,0)"/>
<path d="" fill="#898888" transform="translate(0,0)"/>
<path d="" fill="#878789" transform="translate(0,0)"/>
<path d="" fill="#898987" transform="translate(0,0)"/>
<path d="" fill="#848989" transform="translate(0,0)"/>
<path d="" fill="#868988" transform="translate(0,0)"/>
<path d="" fill="#868888" transform="translate(0,0)"/>
<path d="" fill="#8A8886" transform="translate(0,0)"/>
<path d="" fill="#8E8885" transform="translate(0,0)"/>
<path d="" fill="#8C8784" transform="translate(0,0)"/>
<path d="" fill="#868A89" transform="translate(0,0)"/>
<path d="" fill="#868887" transform="translate(0,0)"/>
<path d="" fill="#858686" transform="translate(0,0)"/>
<path d="" fill="#868788" transform="translate(0,0)"/>
<path d="" fill="#838987" transform="translate(0,0)"/>
<path d="" fill="#848787" transform="translate(0,0)"/>
<path d="" fill="#868787" transform="translate(0,0)"/>
<path d="" fill="#868A89" transform="translate(0,0)"/>
<path d="" fill="#858888" transform="translate(0,0)"/>
<path d="" fill="#848887" transform="translate(0,0)"/>
<path d="" fill="#858887" transform="translate(0,0)"/>
<path d="" fill="#858889" transform="translate(0,0)"/>
<path d="" fill="#878789" transform="translate(0,0)"/>
<path d="" fill="#8D8886" transform="translate(0,0)"/>
<path d="" fill="#8F8985" transform="translate(0,0)"/>
<path d="" fill="#868887" transform="translate(0,0)"/>
<path d="" fill="#858787" transform="translate(0,0)"/>
<path d="" fill="#8F8985" transform="translate(0,0)"/>
<path d="" fill="#8A8887" transform="translate(0,0)"/>
<path d="" fill="#878989" transform="translate(0,0)"/>
<path d="" fill="#848888" transform="translate(0,0)"/>
<path d="" fill="#858A89" transform="translate(0,0)"/>
<path d="" fill="#848989" transform="translate(0,0)"/>
<path d="" fill="#86888A" transform="translate(0,0)"/>
<path d="" fill="#858888" transform="translate(0,0)"/>
<path d="" fill="#858987" transform="translate(0,0)"/>
<path d="" fill="#868988" transform="translate(0,0)"/>
<path d="" fill="#878888" transform="translate(0,0)"/>
<path d="" fill="#868788" transform="translate(0,0)"/>
<path d="" fill="#8E8885" transform="translate(0,0)"/>
<path d="" fill="#8E8883" transform="translate(0,0)"/>
<path d="" fill="#8C8B88" transform="translate(0,0)"/>
<path d="" fill="#888A89" transform="translate(0,0)"/>
<path d="" fill="#858888" transform="translate(0,0)"/>
<path d="" fill="#858888" transform="translate(0,0)"/>
<path d="" fill="#858888" transform="translate(0,0)"/>
<path d="" fill="#868788" transform="translate(0,0)"/>
<path d="" fill="#848887" transform="translate(0,0)"/>
<path d="" fill="#878889" transform="translate(0,0)"/>
<path d="" fill="#888987" transform="translate(0,0)"/>
<path d="" fill="#8F8A88" transform="translate(0,0)"/>
<path d="" fill="#8D8D87" transform="translate(0,0)"/>
<path d="" fill="#898A89" transform="translate(0,0)"/>
<path d="" fill="#868A89" transform="translate(0,0)"/>
<path d="" fill="#868989" transform="translate(0,0)"/>
<path d="" fill="#858888" transform="translate(0,0)"/>
<path d="" fill="#858888" transform="translate(0,0)"/>
<path d="" fill="#858788" transform="translate(0,0)"/>
<path d="" fill="#8F8884" transform="translate(0,0)"/>
<path d="" fill="#888988" transform="translate(0,0)"/>
<path d="" fill="#938A83" transform="translate(0,0)"/>
<path d="" fill="#8B8B89" transform="translate(0,0)"/>
<path d="" fill="#888988" transform="translate(0,0)"/>
<path d="" fill="#878B89" transform="translate(0,0)"/>
<path d="" fill="#898A89" transform="translate(0,0)"/>
<path d="" fill="#85898A" transform="translate(0,0)"/>
<path d="" fill="#86888A" transform="translate(0,0)"/>
<path d="" fill="#868A87" transform="translate(0,0)"/>
<path d="" fill="#888988" transform="translate(0,0)"/>
<path d="" fill="#888C8B" transform="translate(0,0)"/>
<path d="" fill="#898A8B" transform="translate(0,0)"/>
<path d="" fill="#878A89" transform="translate(0,0)"/>
<path d="" fill="#878B8B" transform="translate(0,0)"/>
<path d="" fill="#9A8D81" transform="translate(0,0)"/>
<path d="" fill="#8D8786" transform="translate(0,0)"/>
<path d="" fill="#868989" transform="translate(0,0)"/>
<path d="" fill="#878989" transform="translate(0,0)"/>
<path d="" fill="#8F8B89" transform="translate(0,0)"/>
<path d="" fill="#8F8887" transform="translate(0,0)"/>
<path d="" fill="#928685" transform="translate(0,0)"/>
<path d="" fill="#A88E7B" transform="translate(0,0)"/>
<path d="" fill="#938683" transform="translate(0,0)"/>
<path d="" fill="#8F8885" transform="translate(0,0)"/>
<path d="" fill="#8F8586" transform="translate(0,0)"/>
<path d="" fill="#A78978" transform="translate(0,0)"/>
<path d="" fill="#888B8B" transform="translate(0,0)"/>
<path d="" fill="#888C8B" transform="translate(0,0)"/>
<path d="" fill="#868988" transform="translate(0,0)"/>
<path d="" fill="#958F88" transform="translate(0,0)"/>
<path d="" fill="#8F8E8C" transform="translate(0,0)"/>
<path d="" fill="#888989" transform="translate(0,0)"/>
<path d="" fill="#888989" transform="translate(0,0)"/>
<path d="" fill="#948183" transform="translate(0,0)"/>
<path d="" fill="#908E8B" transform="translate(0,0)"/>
<path d="" fill="#8D908C" transform="translate(0,0)"/>
<path d="" fill="#E69050" transform="translate(0,0)"/>
<path d="" fill="#9D8F84" transform="translate(0,0)"/>
<path d="" fill="#EF8243" transform="translate(0,0)"/>
<path d="" fill="#87888A" transform="translate(0,0)"/>
<path d="" fill="#888889" transform="translate(0,0)"/>
<path d="" fill="#8B8E8B" transform="translate(0,0)"/>
<path d="" fill="#878989" transform="translate(0,0)"/>
<path d="" fill="#EE7B3F" transform="translate(0,0)"/>
<path d="" fill="#888A89" transform="translate(0,0)"/>
<path d="" fill="#928E8A" transform="translate(0,0)"/>
<path d="" fill="#888889" transform="translate(0,0)"/>
<path d="" fill="#8D8485" transform="translate(0,0)"/>
<path d="" fill="#8E8485" transform="translate(0,0)"/>
<path d="" fill="#9C8F87" transform="translate(0,0)"/>
<path d="" fill="#E46543" transform="translate(0,0)"/>
<path d="" fill="#BF696B" transform="translate(0,0)"/>
<path d="" fill="#E96745" transform="translate(0,0)"/>
<path d="" fill="#E99058" transform="translate(0,0)"/>
<path d="" fill="#E85F45" transform="translate(0,0)"/>
<path d="" fill="#A88E80" transform="translate(0,0)"/>
<path d="" fill="#F08D4C" transform="translate(0,0)"/>
<path d="" fill="#EF8F48" transform="translate(0,0)"/>
<path d="" fill="#88898A" transform="translate(0,0)"/>
<path d="" fill="#8C8586" transform="translate(0,0)"/>
<path d="" fill="#888B8B" transform="translate(0,0)"/>
<path d="" fill="#F9713A" transform="translate(0,0)"/>
<path d="" fill="#F66F39" transform="translate(0,0)"/>
<path d="" fill="#F8893C" transform="translate(0,0)"/>
<path d="" fill="#F45E3E" transform="translate(0,0)"/>
<path d="" fill="#F85F3C" transform="translate(0,0)"/>
<path d="" fill="#888A8C" transform="translate(0,0)"/>
<path d="" fill="#E7644E" transform="translate(0,0)"/>
<path d="" fill="#E5684E" transform="translate(0,0)"/>
<path d="" fill="#DD4364" transform="translate(0,0)"/>
<path d="" fill="#F35647" transform="translate(0,0)"/>
<path d="" fill="#F25149" transform="translate(0,0)"/>
<path d="" fill="#E9694B" transform="translate(0,0)"/>
<path d="" fill="#8A888B" transform="translate(0,0)"/>
<path d="" fill="#8B8789" transform="translate(0,0)"/>
<path d="" fill="#997682" transform="translate(0,0)"/>
<path d="" fill="#D6416B" transform="translate(0,0)"/>
<path d="" fill="#EE6848" transform="translate(0,0)"/>
<path d="" fill="#EA6A48" transform="translate(0,0)"/>
<path d="" fill="#EC6C49" transform="translate(0,0)"/>
<path d="" fill="#E86B4C" transform="translate(0,0)"/>
<path d="" fill="#888A8C" transform="translate(0,0)"/>
<path d="" fill="#907D85" transform="translate(0,0)"/>
<path d="" fill="#D33E6F" transform="translate(0,0)"/>
<path d="" fill="#EC6B49" transform="translate(0,0)"/>
<path d="" fill="#B18E7D" transform="translate(0,0)"/>
<path d="" fill="#8F908E" transform="translate(0,0)"/>
<path d="" fill="#EF6A47" transform="translate(0,0)"/>
<path d="" fill="#888A8B" transform="translate(0,0)"/>
<path d="" fill="#A19287" transform="translate(0,0)"/>
<path d="" fill="#F33C51" transform="translate(0,0)"/>
<path d="" fill="#EC6F4C" transform="translate(0,0)"/>
<path d="" fill="#F26A43" transform="translate(0,0)"/>
<path d="" fill="#E8714C" transform="translate(0,0)"/>
<path d="" fill="#EB3F5A" transform="translate(0,0)"/>
<path d="" fill="#89898B" transform="translate(0,0)"/>
<path d="" fill="#CA3877" transform="translate(0,0)"/>
<path d="" fill="#888A8B" transform="translate(0,0)"/>
<path d="" fill="#F27246" transform="translate(0,0)"/>
<path d="" fill="#EF784C" transform="translate(0,0)"/>
<path d="" fill="#EC794D" transform="translate(0,0)"/>
<path d="" fill="#B98F78" transform="translate(0,0)"/>
<path d="" fill="#EA7A48" transform="translate(0,0)"/>
<path d="" fill="#F27447" transform="translate(0,0)"/>
<path d="" fill="#F17247" transform="translate(0,0)"/>
<path d="" fill="#898A8A" transform="translate(0,0)"/>
<path d="" fill="#EC4E56" transform="translate(0,0)"/>
<path d="" fill="#EE4F56" transform="translate(0,0)"/>
<path d="" fill="#ED7343" transform="translate(0,0)"/>
<path d="" fill="#888A8B" transform="translate(0,0)"/>
<path d="" fill="#8E7E88" transform="translate(0,0)"/>
<path d="" fill="#EE824D" transform="translate(0,0)"/>
<path d="" fill="#E83A65" transform="translate(0,0)"/>
<path d="" fill="#EE8047" transform="translate(0,0)"/>
<path d="" fill="#E83766" transform="translate(0,0)"/>
<path d="" fill="#C83079" transform="translate(0,0)"/>
<path d="" fill="#F46A46" transform="translate(0,0)"/>
<path d="" fill="#C4347B" transform="translate(0,0)"/>
<path d="" fill="#E8455D" transform="translate(0,0)"/>
<path d="" fill="#E8396A" transform="translate(0,0)"/>
<path d="" fill="#EF8448" transform="translate(0,0)"/>
<path d="" fill="#E54561" transform="translate(0,0)"/>
<path d="" fill="#987484" transform="translate(0,0)"/>
<path d="" fill="#F26149" transform="translate(0,0)"/>
<path d="" fill="#EE854B" transform="translate(0,0)"/>
<path d="" fill="#E2406A" transform="translate(0,0)"/>
<path d="" fill="#E3416A" transform="translate(0,0)"/>
<path d="" fill="#F08B4C" transform="translate(0,0)"/>
<path d="" fill="#E6356C" transform="translate(0,0)"/>
<path d="" fill="#F35C50" transform="translate(0,0)"/>
<path d="" fill="#89898A" transform="translate(0,0)"/>
<path d="" fill="#8C8389" transform="translate(0,0)"/>
<path d="" fill="#967586" transform="translate(0,0)"/>
<path d="" fill="#F0584E" transform="translate(0,0)"/>
<path d="" fill="#EE584F" transform="translate(0,0)"/>
<path d="" fill="#E6366F" transform="translate(0,0)"/>
<path d="" fill="#C7337D" transform="translate(0,0)"/>
<path d="" fill="#F16A4D" transform="translate(0,0)"/>
<path d="" fill="#E2336D" transform="translate(0,0)"/>
<path d="" fill="#F15B53" transform="translate(0,0)"/>
<path d="" fill="#F2774A" transform="translate(0,0)"/>
<path d="" fill="#F17849" transform="translate(0,0)"/>
<path d="" fill="#CA357F" transform="translate(0,0)"/>
<path d="" fill="#F06B4A" transform="translate(0,0)"/>
<path d="" fill="#F37949" transform="translate(0,0)"/>
<path d="" fill="#C73380" transform="translate(0,0)"/>
<path d="" fill="#F67347" transform="translate(0,0)"/>
<path d="" fill="#EA6B54" transform="translate(0,0)"/>
<path d="" fill="#C73482" transform="translate(0,0)"/>
<path d="" fill="#E1346F" transform="translate(0,0)"/>
<path d="" fill="#EF5D4E" transform="translate(0,0)"/>
<path d="" fill="#E53270" transform="translate(0,0)"/>
<path d="" fill="#CB3484" transform="translate(0,0)"/>
<path d="" fill="#E2316E" transform="translate(0,0)"/>
<path d="" fill="#F2604D" transform="translate(0,0)"/>
<path d="" fill="#F1674D" transform="translate(0,0)"/>
<path d="" fill="#EF6D4D" transform="translate(0,0)"/>
<path d="" fill="#CD3382" transform="translate(0,0)"/>
<path d="" fill="#87898C" transform="translate(0,0)"/>
<path d="" fill="#F1634B" transform="translate(0,0)"/>
<path d="" fill="#F2614F" transform="translate(0,0)"/>
<path d="" fill="#8E7E87" transform="translate(0,0)"/>
<path d="" fill="#F17549" transform="translate(0,0)"/>
<path d="" fill="#EE9251" transform="translate(0,0)"/>
<path d="" fill="#EB555B" transform="translate(0,0)"/>
<path d="" fill="#E5316E" transform="translate(0,0)"/>
<path d="" fill="#ED5658" transform="translate(0,0)"/>
<path d="" fill="#F07649" transform="translate(0,0)"/>
<path d="" fill="#CD2F81" transform="translate(0,0)"/>
<path d="" fill="#DF6051" transform="translate(0,0)"/>
<path d="" fill="#88878A" transform="translate(0,0)"/>
<path d="" fill="#A95D84" transform="translate(0,0)"/>
<path d="" fill="#EE904F" transform="translate(0,0)"/>
<path d="" fill="#EB6152" transform="translate(0,0)"/>
<path d="" fill="#898388" transform="translate(0,0)"/>
<path d="" fill="#E43B71" transform="translate(0,0)"/>
<path d="" fill="#C79674" transform="translate(0,0)"/>
<path d="" fill="#E96B56" transform="translate(0,0)"/>
<path d="" fill="#917A87" transform="translate(0,0)"/>
<path d="" fill="#BC4685" transform="translate(0,0)"/>
<path d="" fill="#EF714E" transform="translate(0,0)"/>
<path d="" fill="#CE2C80" transform="translate(0,0)"/>
<path d="" fill="#F17049" transform="translate(0,0)"/>
<path d="" fill="#88898B" transform="translate(0,0)"/>
<path d="" fill="#87888A" transform="translate(0,0)"/>
<path d="" fill="#C93280" transform="translate(0,0)"/>
<path d="" fill="#E63B69" transform="translate(0,0)"/>
<path d="" fill="#94938D" transform="translate(0,0)"/>
<path d="" fill="#C73480" transform="translate(0,0)"/>
<path d="" fill="#EC3769" transform="translate(0,0)"/>
<path d="" fill="#E44365" transform="translate(0,0)"/>
<path d="" fill="#878A8A" transform="translate(0,0)"/>
<path d="" fill="#9F6885" transform="translate(0,0)"/>
<path d="" fill="#C93682" transform="translate(0,0)"/>
<path d="" fill="#ED495C" transform="translate(0,0)"/>
<path d="" fill="#EE4D5A" transform="translate(0,0)"/>
<path d="" fill="#EE6E4E" transform="translate(0,0)"/>
<path d="" fill="#EC475C" transform="translate(0,0)"/>
<path d="" fill="#EB4C5A" transform="translate(0,0)"/>
<path d="" fill="#ED5551" transform="translate(0,0)"/>
<path d="" fill="#85898B" transform="translate(0,0)"/>
<path d="" fill="#878A89" transform="translate(0,0)"/>
<path d="" fill="#BD4683" transform="translate(0,0)"/>
<path d="" fill="#F15B52" transform="translate(0,0)"/>
<path d="" fill="#99948C" transform="translate(0,0)"/>
<path d="" fill="#F05A50" transform="translate(0,0)"/>
<path d="" fill="#EF5A51" transform="translate(0,0)"/>
<path d="" fill="#EA7B51" transform="translate(0,0)"/>
<path d="" fill="#CB3882" transform="translate(0,0)"/>
<path d="" fill="#F36551" transform="translate(0,0)"/>
<path d="" fill="#CB357E" transform="translate(0,0)"/>
<path d="" fill="#F1684B" transform="translate(0,0)"/>
<path d="" fill="#E03777" transform="translate(0,0)"/>
<path d="" fill="#CF357A" transform="translate(0,0)"/>
<path d="" fill="#E6754F" transform="translate(0,0)"/>
<path d="" fill="#957486" transform="translate(0,0)"/>
<path d="" fill="#98938A" transform="translate(0,0)"/>
<path d="" fill="#E33374" transform="translate(0,0)"/>
<path d="" fill="#E27D58" transform="translate(0,0)"/>
<path d="" fill="#DF3676" transform="translate(0,0)"/>
<path d="" fill="#E03676" transform="translate(0,0)"/>
<path d="" fill="#B15484" transform="translate(0,0)"/>
<path d="" fill="#E23777" transform="translate(0,0)"/>
<path d="" fill="#F07553" transform="translate(0,0)"/>
<path d="" fill="#DD3774" transform="translate(0,0)"/>
<path d="" fill="#E33677" transform="translate(0,0)"/>
<path d="" fill="#CD3A7E" transform="translate(0,0)"/>
<path d="" fill="#D0397C" transform="translate(0,0)"/>
<path d="" fill="#DF3876" transform="translate(0,0)"/>
<path d="" fill="#E97254" transform="translate(0,0)"/>
<path d="" fill="#86878A" transform="translate(0,0)"/>
<path d="" fill="#87878A" transform="translate(0,0)"/>
<path d="" fill="#8F7D87" transform="translate(0,0)"/>
<path d="" fill="#DE3977" transform="translate(0,0)"/>
<path d="" fill="#86898A" transform="translate(0,0)"/>
<path d="" fill="#CF397C" transform="translate(0,0)"/>
<path d="" fill="#DF7658" transform="translate(0,0)"/>
<path d="" fill="#DE775D" transform="translate(0,0)"/>
<path d="" fill="#D8745C" transform="translate(0,0)"/>
<path d="" fill="#8A8088" transform="translate(0,0)"/>
<path d="" fill="#D83B77" transform="translate(0,0)"/>
<path d="" fill="#CA3E7D" transform="translate(0,0)"/>
<path d="" fill="#DA7660" transform="translate(0,0)"/>
<path d="" fill="#DA775F" transform="translate(0,0)"/>
<path d="" fill="#D73B72" transform="translate(0,0)"/>
<path d="" fill="#D73B77" transform="translate(0,0)"/>
<path d="" fill="#D77960" transform="translate(0,0)"/>
<path d="" fill="#D43B73" transform="translate(0,0)"/>
<path d="" fill="#E76959" transform="translate(0,0)"/>
<path d="" fill="#D14179" transform="translate(0,0)"/>
<path d="" fill="#947885" transform="translate(0,0)"/>
<path d="" fill="#D93F75" transform="translate(0,0)"/>
<path d="" fill="#858A8A" transform="translate(0,0)"/>
<path d="" fill="#868A8A" transform="translate(0,0)"/>
<path d="" fill="#88898C" transform="translate(0,0)"/>
<path d="" fill="#AE5A81" transform="translate(0,0)"/>
<path d="" fill="#E46A5D" transform="translate(0,0)"/>
<path d="" fill="#95918D" transform="translate(0,0)"/>
<path d="" fill="#91928F" transform="translate(0,0)"/>
<path d="" fill="#92938E" transform="translate(0,0)"/>
<path d="" fill="#E3635B" transform="translate(0,0)"/>
<path d="" fill="#E86158" transform="translate(0,0)"/>
<path d="" fill="#D73E73" transform="translate(0,0)"/>
<path d="" fill="#DB3B72" transform="translate(0,0)"/>
<path d="" fill="#EA5E59" transform="translate(0,0)"/>
<path d="" fill="#868A8A" transform="translate(0,0)"/>
<path d="" fill="#9E9087" transform="translate(0,0)"/>
<path d="" fill="#DD3F72" transform="translate(0,0)"/>
<path d="" fill="#878A8A" transform="translate(0,0)"/>
<path d="" fill="#AD5D80" transform="translate(0,0)"/>
<path d="" fill="#D83E6F" transform="translate(0,0)"/>
<path d="" fill="#DA4170" transform="translate(0,0)"/>
<path d="" fill="#878989" transform="translate(0,0)"/>
<path d="" fill="#878A8B" transform="translate(0,0)"/>
<path d="" fill="#878A8B" transform="translate(0,0)"/>
<path d="" fill="#878789" transform="translate(0,0)"/>
<path d="" fill="#E95A5D" transform="translate(0,0)"/>
<path d="" fill="#878A8B" transform="translate(0,0)"/>
<path d="" fill="#868B89" transform="translate(0,0)"/>
<path d="" fill="#907B85" transform="translate(0,0)"/>
<path d="" fill="#CB4C78" transform="translate(0,0)"/>
<path d="" fill="#B88378" transform="translate(0,0)"/>
<path d="" fill="#D84170" transform="translate(0,0)"/>
<path d="" fill="#A18C84" transform="translate(0,0)"/>
<path d="" fill="#D73E6F" transform="translate(0,0)"/>
<path d="" fill="#E9555F" transform="translate(0,0)"/>
<path d="" fill="#B05C7E" transform="translate(0,0)"/>
<path d="" fill="#988F89" transform="translate(0,0)"/>
<path d="" fill="#E6555F" transform="translate(0,0)"/>
<path d="" fill="#E7565E" transform="translate(0,0)"/>
<path d="" fill="#9D6A82" transform="translate(0,0)"/>
<path d="" fill="#DA4570" transform="translate(0,0)"/>
<path d="" fill="#DA416E" transform="translate(0,0)"/>
<path d="" fill="#888889" transform="translate(0,0)"/>
<path d="" fill="#88898A" transform="translate(0,0)"/>
<path d="" fill="#9A8D86" transform="translate(0,0)"/>
<path d="" fill="#8D8F8F" transform="translate(0,0)"/>
<path d="" fill="#E75261" transform="translate(0,0)"/>
<path d="" fill="#DD446B" transform="translate(0,0)"/>
<path d="" fill="#948E89" transform="translate(0,0)"/>
<path d="" fill="#E35463" transform="translate(0,0)"/>
<path d="" fill="#A38880" transform="translate(0,0)"/>
<path d="" fill="#878A8A" transform="translate(0,0)"/>
<path d="" fill="#976F81" transform="translate(0,0)"/>
<path d="" fill="#988D87" transform="translate(0,0)"/>
<path d="" fill="#996D80" transform="translate(0,0)"/>
<path d="" fill="#87898A" transform="translate(0,0)"/>
<path d="" fill="#888589" transform="translate(0,0)"/>
<path d="" fill="#878889" transform="translate(0,0)"/>
<path d="" fill="#8D8F8D" transform="translate(0,0)"/>
<path d="" fill="#E34D63" transform="translate(0,0)"/>
<path d="" fill="#E14F65" transform="translate(0,0)"/>
<path d="" fill="#DB4B69" transform="translate(0,0)"/>
<path d="" fill="#DC526B" transform="translate(0,0)"/>
<path d="" fill="#A1817F" transform="translate(0,0)"/>
<path d="" fill="#8C8D8D" transform="translate(0,0)"/>
<path d="" fill="#87888A" transform="translate(0,0)"/>
<path d="" fill="#D44D6E" transform="translate(0,0)"/>
<path d="" fill="#D44D6D" transform="translate(0,0)"/>
<path d="" fill="#918A88" transform="translate(0,0)"/>
<path d="" fill="#868889" transform="translate(0,0)"/>
<path d="" fill="#B66F78" transform="translate(0,0)"/>
<path d="" fill="#8C8D8C" transform="translate(0,0)"/>
<path d="" fill="#8A8E8E" transform="translate(0,0)"/>
<path d="" fill="#986F80" transform="translate(0,0)"/>
<path d="" fill="#8D8C8B" transform="translate(0,0)"/>
<path d="" fill="#898D8E" transform="translate(0,0)"/>
<path d="" fill="#868788" transform="translate(0,0)"/>
<path d="" fill="#858889" transform="translate(0,0)"/>
<path d="" fill="#957080" transform="translate(0,0)"/>
<path d="" fill="#948582" transform="translate(0,0)"/>
<path d="" fill="#9B6E81" transform="translate(0,0)"/>
<path d="" fill="#87898A" transform="translate(0,0)"/>
<path d="" fill="#878488" transform="translate(0,0)"/>
<path d="" fill="#9A6E7F" transform="translate(0,0)"/>
<path d="" fill="#89898B" transform="translate(0,0)"/>
<path d="" fill="#898B8B" transform="translate(0,0)"/>
<path d="" fill="#878988" transform="translate(0,0)"/>
<path d="" fill="#858689" transform="translate(0,0)"/>
<path d="" fill="#917682" transform="translate(0,0)"/>
<path d="" fill="#947281" transform="translate(0,0)"/>
<path d="" fill="#8D7B83" transform="translate(0,0)"/>
<path d="" fill="#98717F" transform="translate(0,0)"/>
<path d="" fill="#8B8A88" transform="translate(0,0)"/>
<path d="" fill="#85898A" transform="translate(0,0)"/>
<path d="" fill="#85878A" transform="translate(0,0)"/>
<path d="" fill="#9B6F7E" transform="translate(0,0)"/>
<path d="" fill="#9B707F" transform="translate(0,0)"/>
<path d="" fill="#8A8A8B" transform="translate(0,0)"/>
<path d="" fill="#868888" transform="translate(0,0)"/>
<path d="" fill="#98717F" transform="translate(0,0)"/>
<path d="" fill="#85898A" transform="translate(0,0)"/>
<path d="" fill="#858788" transform="translate(0,0)"/>
<path d="" fill="#8C7A84" transform="translate(0,0)"/>
<path d="" fill="#888889" transform="translate(0,0)"/>
<path d="" fill="#947680" transform="translate(0,0)"/>
<path d="" fill="#937E82" transform="translate(0,0)"/>
<path d="" fill="#918183" transform="translate(0,0)"/>
<path d="" fill="#858988" transform="translate(0,0)"/>
<path d="" fill="#878789" transform="translate(0,0)"/>
<path d="" fill="#8E7984" transform="translate(0,0)"/>
<path d="" fill="#8D8586" transform="translate(0,0)"/>
<path d="" fill="#8A8989" transform="translate(0,0)"/>
<path d="" fill="#868789" transform="translate(0,0)"/>
<path d="" fill="#86898A" transform="translate(0,0)"/>
<path d="" fill="#86868A" transform="translate(0,0)"/>
<path d="" fill="#878487" transform="translate(0,0)"/>
<path d="" fill="#8E7981" transform="translate(0,0)"/>
<path d="" fill="#868A8A" transform="translate(0,0)"/>
<path d="" fill="#87898A" transform="translate(0,0)"/>
<path d="" fill="#917A83" transform="translate(0,0)"/>
<path d="" fill="#888888" transform="translate(0,0)"/>
<path d="" fill="#8E7D83" transform="translate(0,0)"/>
<path d="" fill="#848889" transform="translate(0,0)"/>
<path d="" fill="#868889" transform="translate(0,0)"/>
<path d="" fill="#868888" transform="translate(0,0)"/>
<path d="" fill="#878789" transform="translate(0,0)"/>
<path d="" fill="#868186" transform="translate(0,0)"/>
<path d="" fill="#8D7982" transform="translate(0,0)"/>
<path d="" fill="#8B8487" transform="translate(0,0)"/>
<path d="" fill="#888889" transform="translate(0,0)"/>
<path d="" fill="#89898A" transform="translate(0,0)"/>
<path d="" fill="#858687" transform="translate(0,0)"/>
<path d="" fill="#868988" transform="translate(0,0)"/>
<path d="" fill="#898184" transform="translate(0,0)"/>
<path d="" fill="#8B7C83" transform="translate(0,0)"/>
<path d="" fill="#8D7A83" transform="translate(0,0)"/>
<path d="" fill="#8E7883" transform="translate(0,0)"/>
<path d="" fill="#888A8B" transform="translate(0,0)"/>
<path d="" fill="#898A8A" transform="translate(0,0)"/>
<path d="" fill="#87888A" transform="translate(0,0)"/>
<path d="" fill="#868889" transform="translate(0,0)"/>
<path d="" fill="#848A89" transform="translate(0,0)"/>
<path d="" fill="#868387" transform="translate(0,0)"/>
<path d="" fill="#8F7A81" transform="translate(0,0)"/>
<path d="" fill="#8F7A82" transform="translate(0,0)"/>
<path d="" fill="#8A8787" transform="translate(0,0)"/>
<path d="" fill="#87898C" transform="translate(0,0)"/>
<path d="" fill="#8F7B81" transform="translate(0,0)"/>
<path d="" fill="#878588" transform="translate(0,0)"/>
<path d="" fill="#8D8286" transform="translate(0,0)"/>
<path d="" fill="#8A8687" transform="translate(0,0)"/>
<path d="" fill="#878B8B" transform="translate(0,0)"/>
<path d="" fill="#85898A" transform="translate(0,0)"/>
<path d="" fill="#8D7C84" transform="translate(0,0)"/>
<path d="" fill="#8A8588" transform="translate(0,0)"/>
<path d="" fill="#868A8A" transform="translate(0,0)"/>
<path d="" fill="#878689" transform="translate(0,0)"/>
<path d="" fill="#868788" transform="translate(0,0)"/>
<path d="" fill="#868788" transform="translate(0,0)"/>
<path d="" fill="#868586" transform="translate(0,0)"/>
<path d="" fill="#8A7F85" transform="translate(0,0)"/>
<path d="" fill="#8C7E83" transform="translate(0,0)"/>
<path d="" fill="#8A8487" transform="translate(0,0)"/>
<path d="" fill="#88898A" transform="translate(0,0)"/>
<path d="" fill="#868A89" transform="translate(0,0)"/>
<path d="" fill="#878B8A" transform="translate(0,0)"/>
<path d="" fill="#898186" transform="translate(0,0)"/>
<path d="" fill="#8B8687" transform="translate(0,0)"/>
<path d="" fill="#87898A" transform="translate(0,0)"/>
</svg>
