<?xml version="1.0" encoding="UTF-8"?>
<svg version="1.1" xmlns="http://www.w3.org/2000/svg" width="256" height="256">
<path d="M0 0 C4.7527759 2.16035268 8.18847699 5.49655122 12 9 C12.60328125 9.53753906 13.2065625 10.07507813 13.828125 10.62890625 C23.46179912 19.63335391 30.87907811 32.55937279 31.39282227 45.88842773 C31.58218717 55.89786331 29.97439713 64.7544722 27.22241211 74.37402344 C23.36905746 87.3026228 23.36905746 87.3026228 26 100 C29.41272604 101.2134137 31.23486812 101.29147881 34.625 100 C39.10383165 96.2283523 41.13522331 91.73608759 42 86 C42.2495951 83.06527954 42.41210739 80.12878494 42.5625 77.1875 C42.60568359 76.39923828 42.64886719 75.61097656 42.69335938 74.79882812 C42.79878321 72.86605785 42.89983094 70.93304974 43 69 C56.82488213 82.44741095 65.10569781 101.0108309 66.05078125 120.26953125 C65.8141674 137.65154889 59.1475965 153.22723871 46.78515625 165.4453125 C38.29534388 173.23260183 28.49173243 179.03238097 17 181 C17.42732422 179.93652344 17.42732422 179.93652344 17.86328125 178.8515625 C18.23839844 177.91054687 18.61351562 176.96953125 19 176 C19.36480469 175.10023438 19.72960937 174.20046875 20.10546875 173.2734375 C23.23579087 164.88824251 24.09091282 157.52739856 20.6875 149.0625 C18.48190456 145.06947034 15.24701334 142.14095267 12 139 C3.24991924 130.51475537 1.30635398 124.34606523 1 112 C0.99080469 110.00002114 0.9879882 107.99996393 1 106 C-5.52097767 113.35092028 -10.07460489 121.06920689 -14 130 C-14.36351562 130.81984375 -14.72703125 131.6396875 -15.1015625 132.484375 C-19.0791823 143.26483989 -18.31419055 156.86794305 -14.22265625 167.44140625 C-12.70962756 170.60764839 -10.99170817 173.52366176 -8.953125 176.37890625 C-8 178 -8 178 -8 181 C-22.41868482 179.37208397 -35.92747696 171.27146102 -45.28125 160.33203125 C-55.56746457 146.72582579 -60.61134175 132.1937489 -59 115 C-55.39226094 90.97847078 -40.52389783 74.24434901 -24.43359375 57.296875 C-8.54089501 40.28497212 0.74978582 23.86818182 0 0 Z " fill="#F7763E" transform="translate(125,29)"/>
<path d="M0 0 C0.99 0.33 1.98 0.66 3 1 C-14.25648415 13 -14.25648415 13 -23 13 C-22.34 11.35 -21.68 9.7 -21 8 C-20.67 8.66 -20.34 9.32 -20 10 C-13.21325698 7.84346484 -7.56705697 5.39557817 -1.875 1.07421875 C-1.25625 0.71972656 -0.6375 0.36523438 0 0 Z " fill="#F05223" transform="translate(165,197)"/>
<path d="M0 0 C3.91121498 0.68936071 7.55508596 1.78250181 11.3125 3.0625 C12.38113281 3.42472656 13.44976562 3.78695312 14.55078125 4.16015625 C15.76314453 4.57587891 15.76314453 4.57587891 17 5 C17.33 4.34 17.66 3.68 18 3 C18.33 4.32 18.66 5.64 19 7 C12.13523882 5.91081033 6.22529789 4.09761199 0 1 C0 0.67 0 0.34 0 0 Z " fill="#EF4D1F" transform="translate(98,203)"/>
<path d="M0 0 C0.99 0.33 1.98 0.66 3 1 C2.67 5.29 2.34 9.58 2 14 C1.67 14 1.34 14 1 14 C0.67 9.38 0.34 4.76 0 0 Z " fill="#F07E36" transform="translate(125,29)"/>
</svg>
